<?xml version="1.0" encoding="UTF-8" standalone="no"?>
<!-- Created with Inkscape (http://www.inkscape.org/) -->

<svg
   xmlns:dc="http://purl.org/dc/elements/1.1/"
   xmlns:cc="http://creativecommons.org/ns#"
   xmlns:rdf="http://www.w3.org/1999/02/22-rdf-syntax-ns#"
   xmlns:svg="http://www.w3.org/2000/svg"
   xmlns="http://www.w3.org/2000/svg"
   xmlns:sodipodi="http://sodipodi.sourceforge.net/DTD/sodipodi-0.dtd"
   xmlns:inkscape="http://www.inkscape.org/namespaces/inkscape"
   width="210mm"
   height="297mm"
   viewBox="0 0 210 297"
   version="1.1"
   id="svg8"
   inkscape:version="0.92.3 (2405546, 2018-03-11)"
   sodipodi:docname="footcontroller.svg">
  <defs
     id="defs2" />
  <sodipodi:namedview
     id="base"
     pagecolor="#ffffff"
     bordercolor="#666666"
     borderopacity="1.0"
     inkscape:pageopacity="0.0"
     inkscape:pageshadow="2"
     inkscape:zoom="0.41816713"
     inkscape:cx="431.87739"
     inkscape:cy="99.303543"
     inkscape:document-units="mm"
     inkscape:current-layer="layer1"
     showgrid="false"
     showguides="true"
     inkscape:guide-bbox="true"
     inkscape:snap-bbox="true"
     inkscape:snap-bbox-midpoints="true"
     inkscape:snap-global="true"
     inkscape:window-width="1613"
     inkscape:window-height="995"
     inkscape:window-x="67"
     inkscape:window-y="27"
     inkscape:window-maximized="1">
    <sodipodi:guide
       position="37.165002,24.676119"
       orientation="0,1"
       id="guide817"
       inkscape:locked="false"
       inkscape:label=""
       inkscape:color="rgb(0,0,255)" />
    <sodipodi:guide
       position="25,0"
       orientation="1,0"
       id="guide819"
       inkscape:locked="false"
       inkscape:label=""
       inkscape:color="rgb(0,0,255)" />
    <sodipodi:guide
       position="90,0"
       orientation="1,0"
       id="guide823"
       inkscape:locked="false"
       inkscape:label=""
       inkscape:color="rgb(0,0,255)" />
    <sodipodi:guide
       position="220,0"
       orientation="1,0"
       id="guide825"
       inkscape:locked="false"
       inkscape:label=""
       inkscape:color="rgb(0,0,255)" />
    <sodipodi:guide
       position="285,0"
       orientation="1,0"
       id="guide827"
       inkscape:locked="false"
       inkscape:label=""
       inkscape:color="rgb(0,0,255)" />
    <sodipodi:guide
       position="310,210.87423"
       orientation="1,0"
       id="guide829"
       inkscape:locked="false"
       inkscape:label=""
       inkscape:color="rgb(0,0,255)" />
    <sodipodi:guide
       position="0,0"
       orientation="1,0"
       id="guide831"
       inkscape:locked="false"
       inkscape:label=""
       inkscape:color="rgb(0,0,255)" />
    <sodipodi:guide
       position="383.04368,90.311111"
       orientation="0,1"
       id="guide833"
       inkscape:locked="false"
       inkscape:label=""
       inkscape:color="rgb(0,0,255)" />
    <sodipodi:guide
       position="0,155"
       orientation="0,1"
       id="guide835"
       inkscape:locked="false"
       inkscape:label=""
       inkscape:color="rgb(0,0,255)" />
    <sodipodi:guide
       position="0,0"
       orientation="0,1"
       id="guide837"
       inkscape:locked="false"
       inkscape:label=""
       inkscape:color="rgb(0,0,255)" />
    <sodipodi:guide
       position="0,110"
       orientation="0,1"
       id="guide934"
       inkscape:locked="false"
       inkscape:label=""
       inkscape:color="rgb(0,0,255)" />
    <sodipodi:guide
       position="43.598466,175"
       orientation="0,1"
       id="guide936"
       inkscape:locked="false"
       inkscape:label=""
       inkscape:color="rgb(0,0,255)" />
    <sodipodi:guide
       position="-34.255938,35"
       orientation="0,1"
       id="guide1051"
       inkscape:locked="false"
       inkscape:label=""
       inkscape:color="rgb(0,0,255)" />
    <sodipodi:guide
       position="40.000002,24.676119"
       orientation="1,0"
       id="guide1081"
       inkscape:locked="false"
       inkscape:label=""
       inkscape:color="rgb(0,0,255)" />
    <sodipodi:guide
       position="105,209.0947"
       orientation="1,0"
       id="guide1083"
       inkscape:locked="false"
       inkscape:label=""
       inkscape:color="rgb(0,0,255)" />
    <sodipodi:guide
       position="170,204.64587"
       orientation="1,0"
       id="guide1085"
       inkscape:locked="false"
       inkscape:label=""
       inkscape:color="rgb(0,0,255)" />
    <sodipodi:guide
       position="235,136.57887"
       orientation="1,0"
       id="guide1087"
       inkscape:locked="false"
       inkscape:label=""
       inkscape:color="rgb(0,0,255)" />
    <sodipodi:guide
       position="189.69132,72.35324"
       orientation="0,1"
       id="guide1191"
       inkscape:locked="false"
       inkscape:label=""
       inkscape:color="rgb(0,0,255)" />
    <sodipodi:guide
       position="-51.606349,7"
       orientation="0,1"
       id="guide939"
       inkscape:locked="false"
       inkscape:label=""
       inkscape:color="rgb(0,0,255)" />
    <sodipodi:guide
       position="-63.173287,137"
       orientation="0,1"
       id="guide987"
       inkscape:locked="false"
       inkscape:label=""
       inkscape:color="rgb(0,0,255)" />
    <sodipodi:guide
       position="122.5,164.2104"
       orientation="1,0"
       inkscape:locked="false"
       id="guide1269"
       inkscape:label=""
       inkscape:color="rgb(0,0,255)" />
    <sodipodi:guide
       position="187.5,181.19768"
       orientation="1,0"
       inkscape:locked="false"
       id="guide1271"
       inkscape:label=""
       inkscape:color="rgb(0,0,255)" />
    <sodipodi:guide
       position="155,44.933121"
       orientation="1,0"
       id="guide1273"
       inkscape:locked="false" />
  </sodipodi:namedview>
  <metadata
     id="metadata5">
    <rdf:RDF>
      <cc:Work
         rdf:about="">
        <dc:format>image/svg+xml</dc:format>
        <dc:type
           rdf:resource="http://purl.org/dc/dcmitype/StillImage" />
        <dc:title />
      </cc:Work>
    </rdf:RDF>
  </metadata>
  <g
     inkscape:label="Ebene 1"
     inkscape:groupmode="layer"
     id="layer1">
    <path
       style="opacity:1;vector-effect:none;fill:#803300;fill-opacity:1;fill-rule:nonzero;stroke:none;stroke-width:1;stroke-linecap:butt;stroke-linejoin:miter;stroke-miterlimit:4;stroke-dasharray:none;stroke-dashoffset:0;stroke-opacity:1"
       d="M -14,103 H 323.99999 V 311 H -14 Z"
       id="rect815"
       inkscape:connector-curvature="0" />
    <path
       style="opacity:1;vector-effect:none;fill:#ff0000;fill-opacity:1;fill-rule:nonzero;stroke:none;stroke-width:2.83649111;stroke-linecap:butt;stroke-linejoin:miter;stroke-miterlimit:4;stroke-dasharray:none;stroke-dashoffset:0;stroke-opacity:1"
       d="m 31,272 a 6,6 0 0 1 -6,6 6,6 0 0 1 -6,-6 6,6 0 0 1 6,-6 6,6 0 0 1 6,6 z"
       id="path841" />
    <path
       style="opacity:1;vector-effect:none;fill:#ff0000;fill-opacity:1;fill-rule:nonzero;stroke:none;stroke-width:2.83649111;stroke-linecap:butt;stroke-linejoin:miter;stroke-miterlimit:4;stroke-dasharray:none;stroke-dashoffset:0;stroke-opacity:1"
       d="m 96,272 a 6,6 0 0 1 -6,6 6,6 0 0 1 -6,-6 6,6 0 0 1 6,-6 6,6 0 0 1 6,6 z"
       id="path841-4" />
    <path
       style="opacity:1;vector-effect:none;fill:#ff0000;fill-opacity:1;fill-rule:nonzero;stroke:none;stroke-width:2.83649111;stroke-linecap:butt;stroke-linejoin:miter;stroke-miterlimit:4;stroke-dasharray:none;stroke-dashoffset:0;stroke-opacity:1"
       d="m 31,207 a 6,6 0 0 1 -6,6 6,6 0 0 1 -6,-6 6,6 0 0 1 6,-6 6,6 0 0 1 6,6 z"
       id="path841-8" />
    <path
       style="opacity:1;vector-effect:none;fill:#ff0000;fill-opacity:1;fill-rule:nonzero;stroke:none;stroke-width:2.83649111;stroke-linecap:butt;stroke-linejoin:miter;stroke-miterlimit:4;stroke-dasharray:none;stroke-dashoffset:0;stroke-opacity:1"
       d="m 161,207 a 6,6 0 0 1 -6,6 6,6 0 0 1 -6,-6 6,6 0 0 1 6,-6 6,6 0 0 1 6,6 z"
       id="path841-1" />
    <path
       style="opacity:1;vector-effect:none;fill:#ff0000;fill-opacity:1;fill-rule:nonzero;stroke:none;stroke-width:2.83649111;stroke-linecap:butt;stroke-linejoin:miter;stroke-miterlimit:4;stroke-dasharray:none;stroke-dashoffset:0;stroke-opacity:1"
       d="m 226,142 a 6,6 0 0 1 -6,6 6,6 0 0 1 -6,-6 6,6 0 0 1 6,-6 6,6 0 0 1 6,6 z"
       id="path841-2" />
    <path
       style="opacity:1;vector-effect:none;fill:#ff0000;fill-opacity:1;fill-rule:nonzero;stroke:none;stroke-width:2.83649111;stroke-linecap:butt;stroke-linejoin:miter;stroke-miterlimit:4;stroke-dasharray:none;stroke-dashoffset:0;stroke-opacity:1"
       d="m 291,272 a 6,6 0 0 1 -6,6 6,6 0 0 1 -6,-6 6,6 0 0 1 6,-6 6,6 0 0 1 6,6 z"
       id="path841-89" />
    <path
       style="opacity:1;vector-effect:none;fill:#ff0000;fill-opacity:1;fill-rule:nonzero;stroke:none;stroke-width:2.83649111;stroke-linecap:butt;stroke-linejoin:miter;stroke-miterlimit:4;stroke-dasharray:none;stroke-dashoffset:0;stroke-opacity:1"
       d="m 291,142 a 6,6 0 0 1 -6,6 6,6 0 0 1 -6,-6 6,6 0 0 1 6,-6 6,6 0 0 1 6,6 z"
       id="path841-3" />
    <path
       style="opacity:1;vector-effect:none;fill:#ff0000;fill-opacity:1;fill-rule:nonzero;stroke:none;stroke-width:2.83649111;stroke-linecap:butt;stroke-linejoin:miter;stroke-miterlimit:4;stroke-dasharray:none;stroke-dashoffset:0;stroke-opacity:1"
       d="m 31,142 a 6,6 0 0 1 -6,6 6,6 0 0 1 -6,-6 6,6 0 0 1 6,-6 6,6 0 0 1 6,6 z"
       id="path841-6" />
    <path
       style="opacity:1;vector-effect:none;fill:#ff0000;fill-opacity:1;fill-rule:nonzero;stroke:none;stroke-width:2.83649111;stroke-linecap:butt;stroke-linejoin:miter;stroke-miterlimit:4;stroke-dasharray:none;stroke-dashoffset:0;stroke-opacity:1"
       d="m 226,207 a 6,6 0 0 1 -6,6 6,6 0 0 1 -6,-6 6,6 0 0 1 6,-6 6,6 0 0 1 6,6 z"
       id="path841-80" />
    <path
       style="opacity:1;vector-effect:none;fill:#ff0000;fill-opacity:1;fill-rule:nonzero;stroke:none;stroke-width:2.83649111;stroke-linecap:butt;stroke-linejoin:miter;stroke-miterlimit:4;stroke-dasharray:none;stroke-dashoffset:0;stroke-opacity:1"
       d="m 161,272 a 6,6 0 0 1 -6,6 6,6 0 0 1 -6,-6 6,6 0 0 1 6,-6 6,6 0 0 1 6,6 z"
       id="path841-21" />
    <path
       style="opacity:1;vector-effect:none;fill:#ff0000;fill-opacity:1;fill-rule:nonzero;stroke:none;stroke-width:2.83649111;stroke-linecap:butt;stroke-linejoin:miter;stroke-miterlimit:4;stroke-dasharray:none;stroke-dashoffset:0;stroke-opacity:1"
       d="m 96,207 a 6,6 0 0 1 -6,6 6,6 0 0 1 -6,-6 6,6 0 0 1 6,-6 6,6 0 0 1 6,6 z"
       id="path841-0" />
    <path
       style="opacity:1;vector-effect:none;fill:#ff0000;fill-opacity:1;fill-rule:nonzero;stroke:none;stroke-width:2.83649111;stroke-linecap:butt;stroke-linejoin:miter;stroke-miterlimit:4;stroke-dasharray:none;stroke-dashoffset:0;stroke-opacity:1"
       d="m 96,142 a 6,6 0 0 1 -6,6 6,6 0 0 1 -6,-6 6,6 0 0 1 6,-6 6,6 0 0 1 6,6 z"
       id="path841-5" />
    <path
       style="opacity:1;vector-effect:none;fill:#ff0000;fill-opacity:1;fill-rule:nonzero;stroke:none;stroke-width:2.83649111;stroke-linecap:butt;stroke-linejoin:miter;stroke-miterlimit:4;stroke-dasharray:none;stroke-dashoffset:0;stroke-opacity:1"
       d="m 161,142 a 6,6 0 0 1 -6,6 6,6 0 0 1 -6,-6 6,6 0 0 1 6,-6 6,6 0 0 1 6,6 z"
       id="path841-11" />
    <path
       style="opacity:1;vector-effect:none;fill:#ff0000;fill-opacity:1;fill-rule:nonzero;stroke:none;stroke-width:2.83649111;stroke-linecap:butt;stroke-linejoin:miter;stroke-miterlimit:4;stroke-dasharray:none;stroke-dashoffset:0;stroke-opacity:1"
       d="m 226,272 a 6,6 0 0 1 -6,6 6,6 0 0 1 -6,-6 6,6 0 0 1 6,-6 6,6 0 0 1 6,6 z"
       id="path841-08" />
    <path
       style="opacity:1;vector-effect:none;fill:#ff0000;fill-opacity:1;fill-rule:nonzero;stroke:none;stroke-width:2.83649111;stroke-linecap:butt;stroke-linejoin:miter;stroke-miterlimit:4;stroke-dasharray:none;stroke-dashoffset:0;stroke-opacity:1"
       d="m 31,252 a 6,6 0 0 1 -6,6 6,6 0 0 1 -6,-6 6,6 0 0 1 6,-6 6,6 0 0 1 6,6 z"
       id="path841-11-5" />
    <path
       style="opacity:1;vector-effect:none;fill:#ff0000;fill-opacity:1;fill-rule:nonzero;stroke:none;stroke-width:2.83649111;stroke-linecap:butt;stroke-linejoin:miter;stroke-miterlimit:4;stroke-dasharray:none;stroke-dashoffset:0;stroke-opacity:1"
       d="m 291,207 a 6,6 0 0 1 -6,6 6,6 0 0 1 -6,-6 6,6 0 0 1 6,-6 6,6 0 0 1 6,6 z"
       id="path841-11-0" />
    <path
       style="opacity:1;vector-effect:none;fill:#ff0000;fill-opacity:1;fill-rule:nonzero;stroke:none;stroke-width:2.83649111;stroke-linecap:butt;stroke-linejoin:miter;stroke-miterlimit:4;stroke-dasharray:none;stroke-dashoffset:0;stroke-opacity:1"
       d="m 291,252.06688 a 6,6 0 0 1 -6,6 6,6 0 0 1 -6,-6 6,6 0 0 1 6,-6 6,6 0 0 1 6,6 z"
       id="path841-11-6" />
    <path
       style="opacity:1;vector-effect:none;fill:#ff0000;fill-opacity:1;fill-rule:nonzero;stroke:none;stroke-width:2.83649111;stroke-linecap:butt;stroke-linejoin:miter;stroke-miterlimit:4;stroke-dasharray:none;stroke-dashoffset:0;stroke-opacity:1"
       d="m 161,187 a 6,6 0 0 1 -6,6 6,6 0 0 1 -6,-6 6,6 0 0 1 6,-6 6,6 0 0 1 6,6 z"
       id="path841-11-4" />
    <path
       style="opacity:1;vector-effect:none;fill:#ff0000;fill-opacity:1;fill-rule:nonzero;stroke:none;stroke-width:2.83649111;stroke-linecap:butt;stroke-linejoin:miter;stroke-miterlimit:4;stroke-dasharray:none;stroke-dashoffset:0;stroke-opacity:1"
       d="m 96,187 a 6,6 0 0 1 -6,6 6,6 0 0 1 -6,-6 6,6 0 0 1 6,-6 6,6 0 0 1 6,6 z"
       id="path841-11-62" />
    <path
       style="opacity:1;vector-effect:none;fill:#ff0000;fill-opacity:1;fill-rule:nonzero;stroke:none;stroke-width:2.83649111;stroke-linecap:butt;stroke-linejoin:miter;stroke-miterlimit:4;stroke-dasharray:none;stroke-dashoffset:0;stroke-opacity:1"
       d="m 226,187 a 6,6 0 0 1 -6,6 6,6 0 0 1 -6,-6 6,6 0 0 1 6,-6 6,6 0 0 1 6,6 z"
       id="path841-11-58" />
    <path
       style="opacity:1;vector-effect:none;fill:#ff0000;fill-opacity:1;fill-rule:nonzero;stroke:none;stroke-width:2.83649111;stroke-linecap:butt;stroke-linejoin:miter;stroke-miterlimit:4;stroke-dasharray:none;stroke-dashoffset:0;stroke-opacity:1"
       d="m 31,187 a 6,6 0 0 1 -6,6 6,6 0 0 1 -6,-6 6,6 0 0 1 6,-6 6,6 0 0 1 6,6 z"
       id="path841-11-628" />
    <path
       style="opacity:1;vector-effect:none;fill:#ff0000;fill-opacity:1;fill-rule:nonzero;stroke:none;stroke-width:2.83649111;stroke-linecap:butt;stroke-linejoin:miter;stroke-miterlimit:4;stroke-dasharray:none;stroke-dashoffset:0;stroke-opacity:1"
       d="m 226,252.06688 a 6,6 0 0 1 -6,6 6,6 0 0 1 -6,-6 6,6 0 0 1 6,-6 6,6 0 0 1 6,6 z"
       id="path841-11-47" />
    <path
       style="opacity:1;vector-effect:none;fill:#ff0000;fill-opacity:1;fill-rule:nonzero;stroke:none;stroke-width:2.83649111;stroke-linecap:butt;stroke-linejoin:miter;stroke-miterlimit:4;stroke-dasharray:none;stroke-dashoffset:0;stroke-opacity:1"
       d="m 161,252.06688 a 6,6 0 0 1 -6,6 6,6 0 0 1 -6,-6 6,6 0 0 1 6,-6 6,6 0 0 1 6,6 z"
       id="path841-11-2" />
    <path
       style="opacity:1;vector-effect:none;fill:#ff0000;fill-opacity:1;fill-rule:nonzero;stroke:none;stroke-width:2.83649111;stroke-linecap:butt;stroke-linejoin:miter;stroke-miterlimit:4;stroke-dasharray:none;stroke-dashoffset:0;stroke-opacity:1"
       d="m 96,252.06688 a 6,6 0 0 1 -6,6 6,6 0 0 1 -6,-6 6,6 0 0 1 6,-6 6,6 0 0 1 6,6 z"
       id="path841-11-40" />
    <path
       style="opacity:1;vector-effect:none;fill:#ff0000;fill-opacity:1;fill-rule:nonzero;stroke:none;stroke-width:2.83649111;stroke-linecap:butt;stroke-linejoin:miter;stroke-miterlimit:4;stroke-dasharray:none;stroke-dashoffset:0;stroke-opacity:1"
       d="m 291,187 a 6,6 0 0 1 -6,6 6,6 0 0 1 -6,-6 6,6 0 0 1 6,-6 6,6 0 0 1 6,6 z"
       id="path841-11-629" />
    <path
       style="opacity:1;vector-effect:none;fill:#ff0000;fill-opacity:1;fill-rule:nonzero;stroke:none;stroke-width:2.83649111;stroke-linecap:butt;stroke-linejoin:miter;stroke-miterlimit:4;stroke-dasharray:none;stroke-dashoffset:0;stroke-opacity:1"
       d="m 31,122 a 6,6 0 0 1 -6,6 6,6 0 0 1 -6,-6 6,6 0 0 1 6,-6 6,6 0 0 1 6,6 z"
       id="path841-11-9" />
    <path
       style="opacity:1;vector-effect:none;fill:#ff0000;fill-opacity:1;fill-rule:nonzero;stroke:none;stroke-width:2.83649111;stroke-linecap:butt;stroke-linejoin:miter;stroke-miterlimit:4;stroke-dasharray:none;stroke-dashoffset:0;stroke-opacity:1"
       d="m 96,122 a 6,6 0 0 1 -6,6 6,6 0 0 1 -6,-6 6,6 0 0 1 6,-6 6,6 0 0 1 6,6 z"
       id="path841-11-08" />
    <path
       style="opacity:1;vector-effect:none;fill:#ff0000;fill-opacity:1;fill-rule:nonzero;stroke:none;stroke-width:2.83649111;stroke-linecap:butt;stroke-linejoin:miter;stroke-miterlimit:4;stroke-dasharray:none;stroke-dashoffset:0;stroke-opacity:1"
       d="m 291,122 a 6,6 0 0 1 -6,6 6,6 0 0 1 -6,-6 6,6 0 0 1 6,-6 6,6 0 0 1 6,6 z"
       id="path841-11-1" />
    <path
       style="opacity:1;vector-effect:none;fill:#ff0000;fill-opacity:1;fill-rule:nonzero;stroke:none;stroke-width:2.83649111;stroke-linecap:butt;stroke-linejoin:miter;stroke-miterlimit:4;stroke-dasharray:none;stroke-dashoffset:0;stroke-opacity:1"
       d="m 161,122 a 6,6 0 0 1 -6,6 6,6 0 0 1 -6,-6 6,6 0 0 1 6,-6 6,6 0 0 1 6,6 z"
       id="path841-11-3" />
    <path
       style="opacity:1;vector-effect:none;fill:#ff0000;fill-opacity:1;fill-rule:nonzero;stroke:none;stroke-width:2.83649111;stroke-linecap:butt;stroke-linejoin:miter;stroke-miterlimit:4;stroke-dasharray:none;stroke-dashoffset:0;stroke-opacity:1"
       d="m 226,122 a 6,6 0 0 1 -6,6 6,6 0 0 1 -6,-6 6,6 0 0 1 6,-6 6,6 0 0 1 6,6 z"
       id="path841-11-11" />
    <g
       aria-label="Mod"
       style="font-style:normal;font-variant:normal;font-weight:normal;font-stretch:normal;font-size:12.69999981px;line-height:125%;font-family:'Japanese 3017';-inkscape-font-specification:'Japanese 3017, ';letter-spacing:0px;word-spacing:0px;fill:#000000;fill-opacity:1;stroke:none;stroke-width:0.26458332px;stroke-linecap:butt;stroke-linejoin:miter;stroke-opacity:1"
       id="text1147-8">
      <path
         d="m 80.078125,227.48047 q 0,1.86035 -1.860352,1.86035 h -0.620117 v -1.86035 h 0.620117 v -4.34082 h -0.620117 v -1.86035 h 3.720703 v -0.62012 h 1.860352 v 0.62012 h 3.720703 v 1.86035 h -0.620117 v 4.34082 h 0.620117 v 1.86035 h -0.620117 q -1.860352,0 -1.860352,-1.86035 v -4.34082 h -1.240234 v 3.10058 h -1.860352 v -3.10058 h -1.240234 z"
         style="font-style:normal;font-variant:normal;font-weight:normal;font-stretch:normal;font-family:'Japanese 3017';-inkscape-font-specification:'Japanese 3017, ';stroke-width:0.26458332px"
         id="path1490" />
      <path
         d="m 89.379883,223.13965 v 4.34082 l 3.100586,-0.006 v -4.33462 z m 2.480468,-1.86655 h 2.480469 v 8.06772 h -1.860351 v -0.006 l -3.100586,0.006 H 87.519531 V 221.2793 H 90 v -0.62012 h 1.860351 z"
         style="font-style:normal;font-variant:normal;font-weight:normal;font-stretch:normal;font-family:'Japanese 3017';-inkscape-font-specification:'Japanese 3017, ';stroke-width:0.26458332px"
         id="path1492" />
      <path
         d="m 97.441406,227.48047 h 1.860352 q 1.240232,0 1.240232,-1.24024 v -3.10058 h -3.100584 z m -2.480469,1.86035 v -1.86035 h 0.620118 v -4.34082 h -0.620118 v -1.86035 h 7.441403 v 4.96093 q 0,3.10059 -3.100582,3.10059 z"
         style="font-style:normal;font-variant:normal;font-weight:normal;font-stretch:normal;font-family:'Japanese 3017';-inkscape-font-specification:'Japanese 3017, ';stroke-width:0.26458332px"
         id="path1494" />
    </g>
    <g
       aria-label="FX"
       style="font-style:normal;font-variant:normal;font-weight:normal;font-stretch:normal;font-size:12.69999981px;line-height:125%;font-family:'Japanese 3017';-inkscape-font-specification:'Japanese 3017, ';letter-spacing:0px;word-spacing:0px;fill:#000000;fill-opacity:1;stroke:none;stroke-width:0.26458332px;stroke-linecap:butt;stroke-linejoin:miter;stroke-opacity:1"
       id="text1147-4">
      <path
         d="m 149.729,227.17041 q 0,1.86035 -1.86035,1.86035 h -0.62011 v -1.86035 h 0.62011 v -4.34082 h -0.62011 v -1.86035 h 7.4414 v 1.86035 H 149.729 v 1.24023 h 3.72071 v 1.86036 H 149.729 Z"
         style="font-style:normal;font-variant:normal;font-weight:normal;font-stretch:normal;font-family:'Japanese 3017';-inkscape-font-specification:'Japanese 3017, ';stroke-width:0.26458332px"
         id="path1497" />
      <path
         d="m 160.8229,226.08521 q 0.71314,1.0852 1.32085,1.0852 h 0.60771 v 1.86035 h -0.62011 q -1.5503,0 -2.32544,-1.18442 l -0.77515,-1.18443 -1.55029,2.36885 h -2.17041 l 2.6355,-4.03076 -0.70694,-1.08521 q -0.71313,-1.0852 -1.32085,-1.0852 h -0.60771 v -1.86035 h 0.62012 q 1.55029,0 2.32544,1.18442 l 0.77514,1.18443 1.55029,-2.36885 h 2.17041 L 160.11597,225 Z"
         style="font-style:normal;font-variant:normal;font-weight:normal;font-stretch:normal;font-family:'Japanese 3017';-inkscape-font-specification:'Japanese 3017, ';stroke-width:0.26458332px"
         id="path1499" />
    </g>
    <g
       aria-label="Delay"
       style="font-style:normal;font-variant:normal;font-weight:normal;font-stretch:normal;font-size:12.69999981px;line-height:125%;font-family:'Japanese 3017';-inkscape-font-specification:'Japanese 3017, ';letter-spacing:0px;word-spacing:0px;fill:#000000;fill-opacity:1;stroke:none;stroke-width:0.26458332px;stroke-linecap:butt;stroke-linejoin:miter;stroke-opacity:1"
       id="text1147-41">
      <path
         d="m 202.63672,223.13965 v 6.20117 h -1.86035 v -6.20117 h -0.62012 v -1.86035 h 7.44141 v 4.96093 q 0,3.10059 -3.10059,3.10059 h -0.62012 v -1.86035 h 0.62012 q 1.24023,0 1.24023,-1.24024 v -3.10058 z"
         style="font-style:normal;font-variant:normal;font-weight:normal;font-stretch:normal;font-family:'Japanese 3017';-inkscape-font-specification:'Japanese 3017, ';stroke-width:0.26458332px"
         id="path1502" />
      <path
         d="m 210.69824,224.37988 h 3.72071 v 1.86035 h -3.72071 q 0,1.24024 1.24024,1.24024 h 3.7207 v 1.86035 h -3.7207 q -3.10059,0 -3.10059,-3.10059 h -0.62012 v -1.86035 h 0.62012 v -1.24023 h -0.62012 v -1.86035 h 7.44141 v 1.86035 h -4.96094 z"
         style="font-style:normal;font-variant:normal;font-weight:normal;font-stretch:normal;font-family:'Japanese 3017';-inkscape-font-specification:'Japanese 3017, ';stroke-width:0.26458332px"
         id="path1504" />
      <path
         d="m 216.89941,227.48047 v -6.20117 h 1.86036 v 6.20117 h 2.48046 v -0.62012 h 1.86036 v 0.62012 q 0,1.86035 -1.86036,1.86035 h -4.96093 v -1.86035 z"
         style="font-style:normal;font-variant:normal;font-weight:normal;font-stretch:normal;font-family:'Japanese 3017';-inkscape-font-specification:'Japanese 3017, ';stroke-width:0.26458332px"
         id="path1506" />
      <path
         d="m 226.82129,221.2793 v -0.62012 h 1.86035 v 0.62012 h 3.10059 v 1.86035 h -0.62012 v 4.34082 h 0.62012 v 1.86035 h -0.62012 q -1.86035,0 -1.86035,-1.86035 v -1.24024 h -3.10059 v 1.24024 q 0,1.86035 -1.86035,1.86035 h -0.62012 v -1.86035 h 0.62012 v -4.34082 h -0.62012 v -1.86035 z m 2.48047,1.86035 h -3.10059 v 1.24023 h 3.10059 z"
         style="font-style:normal;font-variant:normal;font-weight:normal;font-stretch:normal;font-family:'Japanese 3017';-inkscape-font-specification:'Japanese 3017, ';stroke-width:0.26458332px"
         id="path1508" />
      <path
         d="m 237.36328,226.24023 h -3.7207 q -1.24024,0 -1.24024,-1.24023 v -3.7207 h 1.86036 v 3.10058 h 3.10058 v -3.10058 h 1.86035 v 3.10058 h 0.62012 v 1.86035 h -0.62012 q 0,3.10059 -3.10058,3.10059 h -1.86035 v -1.86035 h 1.86035 q 1.24023,0 1.24023,-1.24024 z"
         style="font-style:normal;font-variant:normal;font-weight:normal;font-stretch:normal;font-family:'Japanese 3017';-inkscape-font-specification:'Japanese 3017, ';stroke-width:0.26458332px"
         id="path1510" />
    </g>
    <g
       aria-label="Reverb"
       style="font-style:normal;font-variant:normal;font-weight:normal;font-stretch:normal;font-size:12.69999981px;line-height:125%;font-family:'Japanese 3017';-inkscape-font-specification:'Japanese 3017, ';letter-spacing:0px;word-spacing:0px;fill:#000000;fill-opacity:1;stroke:none;stroke-width:0.26458332px;stroke-linecap:butt;stroke-linejoin:miter;stroke-opacity:1"
       id="text1147-83">
      <path
         d="m 263.60596,222.82959 v 1.24023 h 3.10058 v -1.24023 z m 2.48047,3.10059 q 0,1.24023 1.24023,1.24023 h 1.24023 v 1.86035 h -1.24023 q -3.10059,0 -3.10059,-3.10058 h -0.62011 v 3.10058 h -1.86035 v -3.10058 h -0.62012 v -1.86036 h 0.62012 v -3.10058 h 6.82128 v 3.10058 q 0,1.86036 -1.86035,1.86036 z"
         style="font-style:normal;font-variant:normal;font-weight:normal;font-stretch:normal;font-family:'Japanese 3017';-inkscape-font-specification:'Japanese 3017, ';stroke-width:0.26458332px"
         id="path1513" />
      <path
         d="m 271.66748,224.06982 h 3.7207 v 1.86036 h -3.7207 q 0,1.24023 1.24023,1.24023 h 3.72071 v 1.86035 h -3.72071 q -3.10058,0 -3.10058,-3.10058 h -0.62012 v -1.86036 h 0.62012 v -1.24023 h -0.62012 v -1.86035 h 7.44141 v 1.86035 h -4.96094 z"
         style="font-style:normal;font-variant:normal;font-weight:normal;font-stretch:normal;font-family:'Japanese 3017';-inkscape-font-specification:'Japanese 3017, ';stroke-width:0.26458332px"
         id="path1515" />
      <path
         d="m 282.82959,220.96924 q 1.86035,0 1.86035,1.86035 v 6.20117 h -2.17041 l -4.03076,-6.20117 -1.24023,-1.86035 h 2.18901 l 3.39204,5.21518 v -3.35483 h -0.62012 v -1.86035 z"
         style="font-style:normal;font-variant:normal;font-weight:normal;font-stretch:normal;font-family:'Japanese 3017';-inkscape-font-specification:'Japanese 3017, ';stroke-width:0.26458332px"
         id="path1517" />
      <path
         d="m 287.79053,224.06982 h 3.7207 v 1.86036 h -3.7207 q 0,1.24023 1.24023,1.24023 h 3.7207 v 1.86035 h -3.7207 q -3.10058,0 -3.10058,-3.10058 h -0.62012 v -1.86036 h 0.62012 v -1.24023 h -0.62012 v -1.86035 h 7.4414 v 1.86035 h -4.96093 z"
         style="font-style:normal;font-variant:normal;font-weight:normal;font-stretch:normal;font-family:'Japanese 3017';-inkscape-font-specification:'Japanese 3017, ';stroke-width:0.26458332px"
         id="path1519" />
      <path
         d="m 295.85205,222.82959 v 1.24023 h 3.10059 v -1.24023 z m 2.48047,3.10059 q 0,1.24023 1.24023,1.24023 h 1.24024 v 1.86035 h -1.24024 q -3.10058,0 -3.10058,-3.10058 h -0.62012 v 3.10058 h -1.86035 v -3.10058 h -0.62012 v -1.86036 h 0.62012 v -3.10058 h 6.82129 v 3.10058 q 0,1.86036 -1.86035,1.86036 z"
         style="font-style:normal;font-variant:normal;font-weight:normal;font-stretch:normal;font-family:'Japanese 3017';-inkscape-font-specification:'Japanese 3017, ';stroke-width:0.26458332px"
         id="path1521" />
      <path
         d="m 303.91357,222.82959 v 1.24023 h 3.10059 v -1.24023 z m -1.86035,1.24023 v -1.24023 h -0.62011 v -1.86035 h 7.4414 v 6.20117 q 0,1.86035 -1.86035,1.86035 h -1.86035 v -1.86035 h 1.86035 v -1.24023 h -3.10059 v 3.10058 h -1.86035 v -3.10058 h -0.62011 v -1.86036 z"
         style="font-style:normal;font-variant:normal;font-weight:normal;font-stretch:normal;font-family:'Japanese 3017';-inkscape-font-specification:'Japanese 3017, ';stroke-width:0.26458332px"
         id="path1523" />
    </g>
    <g
       aria-label="'Booster"
       style="font-style:normal;font-variant:normal;font-weight:normal;font-stretch:normal;font-size:12.69999981px;line-height:125%;font-family:'Japanese 3017';-inkscape-font-specification:'Japanese 3017, ';letter-spacing:0px;word-spacing:0px;fill:#000000;fill-opacity:1;stroke:none;stroke-width:0.26458332px;stroke-linecap:butt;stroke-linejoin:miter;stroke-opacity:1"
       id="text1147-8-9">
      <path
         d="m 2.055664,223.13965 v 1.24023 h 3.1005859 v -1.24023 z m -1.86035151,1.24023 v -1.24023 H -0.42480469 V 221.2793 H 7.0166015 v 6.20117 q 0,1.86035 -1.8603516,1.86035 H 3.2958984 v -1.86035 h 1.8603515 v -1.24024 H 2.055664 v 3.10059 H 0.19531249 v -3.10059 h -0.62011718 v -1.86035 z"
         style="font-style:normal;font-variant:normal;font-weight:normal;font-stretch:normal;font-family:'Japanese 3017';-inkscape-font-specification:'Japanese 3017, ';stroke-width:0.26458332px"
         id="path1531" />
      <path
         d="m 9.4970703,223.13965 v 4.34082 l 3.1005857,-0.006 v -4.33462 z m 2.4804687,-1.86655 h 2.480469 v 8.06772 h -1.860352 v -0.006 l -3.1005857,0.006 H 7.6367187 v -8.06152 h 2.4804683 v -0.62012 h 1.860352 z"
         style="font-style:normal;font-variant:normal;font-weight:normal;font-stretch:normal;font-family:'Japanese 3017';-inkscape-font-specification:'Japanese 3017, ';stroke-width:0.26458332px"
         id="path1533" />
      <path
         d="m 16.938477,223.13965 v 4.34082 l 3.100585,-0.006 v -4.33462 z m 2.480468,-1.86655 h 2.480469 v 8.06772 h -1.860352 v -0.006 l -3.100585,0.006 h -1.860352 v -8.06152 h 2.480469 v -0.62012 h 1.860351 z"
         style="font-style:normal;font-variant:normal;font-weight:normal;font-stretch:normal;font-family:'Japanese 3017';-inkscape-font-specification:'Japanese 3017, ';stroke-width:0.26458332px"
         id="path1535" />
      <path
         d="m 29.34082,226.24023 q 0,3.10059 -3.100586,3.10059 h -3.720703 v -1.86035 h 3.720703 q 1.240235,0 1.240235,-1.24024 h -4.960938 v -1.86035 q 0,-3.10058 3.100586,-3.10058 h 3.720703 v 1.86035 h -3.720703 q -1.240234,0 -1.240234,1.24023 h 4.960937 z"
         style="font-style:normal;font-variant:normal;font-weight:normal;font-stretch:normal;font-family:'Japanese 3017';-inkscape-font-specification:'Japanese 3017, ';stroke-width:0.26458332px"
         id="path1537" />
      <path
         d="m 32.441406,223.13965 h -2.480469 v -1.86035 h 6.821289 v 1.86035 h -2.480468 v 4.34082 h 0.620117 v 1.86035 h -0.620117 q -1.860352,0 -1.860352,-1.86035 z"
         style="font-style:normal;font-variant:normal;font-weight:normal;font-stretch:normal;font-family:'Japanese 3017';-inkscape-font-specification:'Japanese 3017, ';stroke-width:0.26458332px"
         id="path1539" />
      <path
         d="m 39.882812,224.37988 h 3.720704 v 1.86035 h -3.720704 q 0,1.24024 1.240235,1.24024 h 3.720703 v 1.86035 h -3.720703 q -3.100586,0 -3.100586,-3.10059 h -0.620117 v -1.86035 h 0.620117 v -1.24023 h -0.620117 v -1.86035 h 7.441406 v 1.86035 h -4.960938 z"
         style="font-style:normal;font-variant:normal;font-weight:normal;font-stretch:normal;font-family:'Japanese 3017';-inkscape-font-specification:'Japanese 3017, ';stroke-width:0.26458332px"
         id="path1541" />
      <path
         d="m 47.944336,223.13965 v 1.24023 h 3.100586 v -1.24023 z m 2.480469,3.10058 q 0,1.24024 1.240234,1.24024 h 1.240234 v 1.86035 h -1.240234 q -3.100586,0 -3.100586,-3.10059 h -0.620117 v 3.10059 h -1.860352 v -3.10059 h -0.620117 v -1.86035 h 0.620117 v -3.10058 h 6.821289 v 3.10058 q 0,1.86035 -1.860351,1.86035 z"
         style="font-style:normal;font-variant:normal;font-weight:normal;font-stretch:normal;font-family:'Japanese 3017';-inkscape-font-specification:'Japanese 3017, ';stroke-width:0.26458332px"
         id="path1543" />
    </g>
    <g
       aria-label="CH1/5"
       style="font-style:normal;font-weight:normal;font-size:12.69999981px;line-height:125%;font-family:sans-serif;letter-spacing:0px;word-spacing:0px;fill:#000000;fill-opacity:1;stroke:none;stroke-width:0.26458332px;stroke-linecap:butt;stroke-linejoin:miter;stroke-opacity:1"
       id="text976">
      <path
         d="M 12.907722,287.82959 H 9.807136 v 0.62012 q 0,3.7207 4.12998,3.7207 h 0.830957 v 1.86035 h -0.830957 q -5.9903315,0 -5.9903315,-5.58105 v -0.62012 H 7.3266673 v -1.86035 h 7.4414057 v 3.10058 h -1.860351 z"
         style="font-style:normal;font-variant:normal;font-weight:normal;font-stretch:normal;font-family:'Japanese 3017';-inkscape-font-specification:'Japanese 3017, ';stroke-width:0.26458332px"
         id="path1030" />
      <path
         d="m 16.008308,289.06982 v -3.10058 h 1.860351 v 3.10058 h 3.100586 v -3.10058 h 1.860352 v 6.20117 h 0.620117 v 1.86035 h -0.620117 q -1.860352,0 -1.860352,-1.86035 v -1.24023 h -3.100586 v 3.10058 h -1.860351 v -3.10058 h -0.620117 v -1.86036 z"
         style="font-style:normal;font-variant:normal;font-weight:normal;font-stretch:normal;font-family:'Japanese 3017';-inkscape-font-specification:'Japanese 3017, ';stroke-width:0.26458332px"
         id="path1032" />
      <path
         d="m 26.5503,294.03076 h -1.860351 v -6.20117 h -0.620118 v -1.86035 h 0.620118 q 1.860351,0 1.860351,1.86035 z"
         style="font-style:normal;font-variant:normal;font-weight:normal;font-stretch:normal;font-family:'Japanese 3017';-inkscape-font-specification:'Japanese 3017, ';stroke-width:0.26458332px"
         id="path1034" />
      <path
         d="m 29.340827,294.03076 h -2.17041 l 5.270996,-8.06152 h 2.17041 z"
         style="font-style:normal;font-variant:normal;font-weight:normal;font-stretch:normal;font-family:'Japanese 3017';-inkscape-font-specification:'Japanese 3017, ';stroke-width:0.26458332px"
         id="path1036" />
      <path
         d="m 35.852058,287.82959 h -0.620117 v -1.86035 h 7.441406 v 1.86035 h -4.960938 v 1.24023 h 4.960938 v 1.86036 q 0,3.10058 -3.100586,3.10058 h -3.720703 v -1.86035 h 3.720703 q 1.240234,0 1.240234,-1.24023 h -4.960937 z"
         style="font-style:normal;font-variant:normal;font-weight:normal;font-stretch:normal;font-family:'Japanese 3017';-inkscape-font-specification:'Japanese 3017, ';stroke-width:0.26458332px"
         id="path1038" />
    </g>
    <g
       aria-label="CH2/6"
       style="font-style:normal;font-weight:normal;font-size:12.69999981px;line-height:125%;font-family:sans-serif;letter-spacing:0px;word-spacing:0px;fill:#000000;fill-opacity:1;stroke:none;stroke-width:0.26458332px;stroke-linecap:butt;stroke-linejoin:miter;stroke-opacity:1"
       id="text976-6">
      <path
         d="m 75.737305,287.82959 h -3.100586 v 0.62012 q 0,3.7207 4.12998,3.7207 h 0.830957 v 1.86035 h -0.830957 q -5.990332,0 -5.990332,-5.58105 v -0.62012 H 70.15625 v -1.86035 h 7.441406 v 3.10058 h -1.860351 z"
         style="font-style:normal;font-variant:normal;font-weight:normal;font-stretch:normal;font-family:'Japanese 3017';-inkscape-font-specification:'Japanese 3017, ';stroke-width:0.26458332px"
         id="path1041" />
      <path
         d="m 78.837891,289.06982 v -3.10058 h 1.860351 v 3.10058 h 3.100586 v -3.10058 h 1.860352 v 6.20117 h 0.620117 v 1.86035 H 85.65918 q -1.860352,0 -1.860352,-1.86035 v -1.24023 h -3.100586 v 3.10058 h -1.860351 v -3.10058 h -0.620118 v -1.86036 z"
         style="font-style:normal;font-variant:normal;font-weight:normal;font-stretch:normal;font-family:'Japanese 3017';-inkscape-font-specification:'Japanese 3017, ';stroke-width:0.26458332px"
         id="path1043" />
      <path
         d="m 88.759766,292.17041 h 4.960937 v 1.86035 h -6.821289 v -4.96094 h 4.960937 q 0,-1.24023 -1.240234,-1.24023 h -3.720703 v -1.86035 h 3.720703 q 3.100586,0 3.100586,3.10058 v 1.86036 h -4.960937 z"
         style="font-style:normal;font-variant:normal;font-weight:normal;font-stretch:normal;font-family:'Japanese 3017';-inkscape-font-specification:'Japanese 3017, ';stroke-width:0.26458332px"
         id="path1045" />
      <path
         d="m 96.51123,294.03076 h -2.17041 l 5.270996,-8.06152 h 2.170414 z"
         style="font-style:normal;font-variant:normal;font-weight:normal;font-stretch:normal;font-family:'Japanese 3017';-inkscape-font-specification:'Japanese 3017, ';stroke-width:0.26458332px"
         id="path1047" />
      <path
         d="m 109.84375,294.03076 h -3.7207 q -3.10059,0 -3.10059,-3.10058 h -0.62012 v -1.86036 h 0.62012 v -3.10058 h 6.82129 v 1.86035 h -4.96094 v 1.24023 h 3.72071 q 1.24023,0 1.24023,1.24024 z m -1.86035,-1.86035 v -1.24023 h -3.10059 q 0,1.24023 1.24024,1.24023 z"
         style="font-style:normal;font-variant:normal;font-weight:normal;font-stretch:normal;font-family:'Japanese 3017';-inkscape-font-specification:'Japanese 3017, ';stroke-width:0.26458332px"
         id="path1049" />
    </g>
    <g
       aria-label="CH3/7"
       style="font-style:normal;font-weight:normal;font-size:12.69999981px;line-height:125%;font-family:sans-serif;letter-spacing:0px;word-spacing:0px;fill:#000000;fill-opacity:1;stroke:none;stroke-width:0.26458332px;stroke-linecap:butt;stroke-linejoin:miter;stroke-opacity:1"
       id="text976-0">
      <path
         d="m 140.79932,287.82959 h -3.10059 v 0.62012 q 0,3.7207 4.12998,3.7207 h 0.83096 v 1.86035 h -0.83096 q -5.99033,0 -5.99033,-5.58105 v -0.62012 h -0.62012 v -1.86035 h 7.44141 v 3.10058 h -1.86035 z"
         style="font-style:normal;font-variant:normal;font-weight:normal;font-stretch:normal;font-family:'Japanese 3017';-inkscape-font-specification:'Japanese 3017, ';stroke-width:0.26458332px"
         id="path1052" />
      <path
         d="m 143.8999,289.06982 v -3.10058 h 1.86035 v 3.10058 h 3.10059 v -3.10058 h 1.86035 v 6.20117 h 0.62012 v 1.86035 h -0.62012 q -1.86035,0 -1.86035,-1.86035 v -1.24023 h -3.10059 v 3.10058 h -1.86035 v -3.10058 h -0.62011 v -1.86036 z"
         style="font-style:normal;font-variant:normal;font-weight:normal;font-stretch:normal;font-family:'Japanese 3017';-inkscape-font-specification:'Japanese 3017, ';stroke-width:0.26458332px"
         id="path1054" />
      <path
         d="m 156.92236,289.06982 v -1.24023 h -4.96093 v -1.86035 h 7.4414 v 1.86035 h -0.62012 v 1.24023 h 0.62012 v 1.86036 h -0.62012 q 0,3.10058 -3.10058,3.10058 h -3.7207 v -1.86035 h 3.7207 q 1.24023,0 1.24023,-1.24023 h -3.7207 v -1.86036 z"
         style="font-style:normal;font-variant:normal;font-weight:normal;font-stretch:normal;font-family:'Japanese 3017';-inkscape-font-specification:'Japanese 3017, ';stroke-width:0.26458332px"
         id="path1056" />
      <path
         d="m 162.19336,294.03076 h -2.17041 l 5.271,-8.06152 h 2.17041 z"
         style="font-style:normal;font-variant:normal;font-weight:normal;font-stretch:normal;font-family:'Japanese 3017';-inkscape-font-specification:'Japanese 3017, ';stroke-width:0.26458332px"
         id="path1058" />
      <path
         d="m 169.94482,287.82959 v 1.24023 h -1.86035 v -3.10058 h 5.58106 q 1.11621,0 1.11621,0.66972 0,0.44649 -0.4961,1.19063 l -4.03076,6.20117 h -2.17041 l 4.05557,-6.20117 z"
         style="font-style:normal;font-variant:normal;font-weight:normal;font-stretch:normal;font-family:'Japanese 3017';-inkscape-font-specification:'Japanese 3017, ';stroke-width:0.26458332px"
         id="path1060" />
    </g>
    <g
       aria-label="CH4/8"
       style="font-style:normal;font-weight:normal;font-size:12.69999981px;line-height:125%;font-family:sans-serif;letter-spacing:0px;word-spacing:0px;fill:#000000;fill-opacity:1;stroke:none;stroke-width:0.26458332px;stroke-linecap:butt;stroke-linejoin:miter;stroke-opacity:1"
       id="text976-9">
      <path
         d="m 205.7373,288.13965 h -3.10058 v 0.62012 q 0,3.7207 4.12998,3.7207 h 0.83096 v 1.86035 h -0.83096 q -5.99033,0 -5.99033,-5.58105 v -0.62012 h -0.62012 v -1.86035 h 7.44141 v 3.10058 h -1.86036 z"
         style="font-style:normal;font-variant:normal;font-weight:normal;font-stretch:normal;font-family:'Japanese 3017';-inkscape-font-specification:'Japanese 3017, ';stroke-width:0.26458332px"
         id="path1063" />
      <path
         d="m 208.83789,289.37988 v -3.10058 h 1.86035 v 3.10058 h 3.10059 v -3.10058 h 1.86035 v 6.20117 h 0.62012 v 1.86035 h -0.62012 q -1.86035,0 -1.86035,-1.86035 v -1.24024 h -3.10059 v 3.10059 h -1.86035 v -3.10059 h -0.62012 v -1.86035 z"
         style="font-style:normal;font-variant:normal;font-weight:normal;font-stretch:normal;font-family:'Japanese 3017';-inkscape-font-specification:'Japanese 3017, ';stroke-width:0.26458332px"
         id="path1065" />
      <path
         d="m 221.86035,291.24023 h -3.7207 q -1.24024,0 -1.24024,-1.24023 v -3.7207 h 1.86036 v 3.10058 h 3.10058 v -3.10058 h 1.86035 v 3.10058 h 0.62012 v 1.86035 h -0.62012 v 1.24024 q 0,1.86035 -1.86035,1.86035 h -0.62012 v -1.86035 h 0.62012 z"
         style="font-style:normal;font-variant:normal;font-weight:normal;font-stretch:normal;font-family:'Japanese 3017';-inkscape-font-specification:'Japanese 3017, ';stroke-width:0.26458332px"
         id="path1067" />
      <path
         d="m 227.13135,294.34082 h -2.17041 l 5.27099,-8.06152 h 2.17041 z"
         style="font-style:normal;font-variant:normal;font-weight:normal;font-stretch:normal;font-family:'Japanese 3017';-inkscape-font-specification:'Japanese 3017, ';stroke-width:0.26458332px"
         id="path1069" />
      <path
         d="m 237.9834,289.37988 v -1.24023 h -3.10059 v 1.24023 z m -3.10059,1.86035 v 1.24024 l 3.10059,-0.006 v -1.23404 z m 2.48047,-4.96093 h 2.48047 v 8.06152 h -1.86035 v -0.006 l -3.10059,0.006 h -1.86035 v -8.06152 h 2.48047 v -0.62012 h 1.86035 z"
         style="font-style:normal;font-variant:normal;font-weight:normal;font-stretch:normal;font-family:'Japanese 3017';-inkscape-font-specification:'Japanese 3017, ';stroke-width:0.26458332px"
         id="path1071" />
    </g>
    <g
       aria-label="Solo Boost"
       style="font-style:normal;font-weight:normal;font-size:12.69999981px;line-height:125%;font-family:sans-serif;letter-spacing:0px;word-spacing:0px;fill:#000000;fill-opacity:1;stroke:none;stroke-width:0.26458332px;stroke-linecap:butt;stroke-linejoin:miter;stroke-opacity:1"
       id="text903-1">
      <path
         d="m 277.24854,285.92726 q 0,3.10059 -3.10059,3.10059 h -3.7207 v -1.86036 h 3.7207 q 1.24023,0 1.24023,-1.24023 h -4.96093 v -1.86035 q 0,-3.10059 3.10058,-3.10059 h 3.72071 v 1.86035 h -3.72071 q -1.24023,0 -1.24023,1.24024 h 4.96094 z"
         style="font-style:normal;font-variant:normal;font-weight:normal;font-stretch:normal;font-family:'Japanese 3017';-inkscape-font-specification:'Japanese 3017, ';text-align:center;letter-spacing:0px;word-spacing:0px;text-anchor:middle;stroke-width:0.26458332px"
         id="path1557" />
      <path
         d="m 279.729,282.82667 v 4.34082 l 3.10059,-0.006 v -4.33462 z m 2.48047,-1.86655 h 2.48047 v 8.06773 h -1.86035 v -0.006 l -3.10059,0.006 h -1.86035 v -8.06153 h 2.48047 v -0.62012 h 1.86035 z"
         style="font-style:normal;font-variant:normal;font-weight:normal;font-stretch:normal;font-family:'Japanese 3017';-inkscape-font-specification:'Japanese 3017, ';text-align:center;letter-spacing:0px;word-spacing:0px;text-anchor:middle;stroke-width:0.26458332px"
         id="path1559" />
      <path
         d="m 285.93018,287.16749 v -6.20117 h 1.86035 v 6.20117 h 2.48047 v -0.62011 h 1.86035 v 0.62011 q 0,1.86036 -1.86035,1.86036 h -4.96094 v -1.86036 z"
         style="font-style:normal;font-variant:normal;font-weight:normal;font-stretch:normal;font-family:'Japanese 3017';-inkscape-font-specification:'Japanese 3017, ';text-align:center;letter-spacing:0px;word-spacing:0px;text-anchor:middle;stroke-width:0.26458332px"
         id="path1561" />
      <path
         d="m 294.61182,282.82667 v 4.34082 l 3.10058,-0.006 v -4.33462 z m 2.48047,-1.86655 h 2.48046 v 8.06773 h -1.86035 v -0.006 l -3.10058,0.006 h -1.86035 v -8.06153 h 2.48046 v -0.62012 h 1.86036 z"
         style="font-style:normal;font-variant:normal;font-weight:normal;font-stretch:normal;font-family:'Japanese 3017';-inkscape-font-specification:'Japanese 3017, ';text-align:center;letter-spacing:0px;word-spacing:0px;text-anchor:middle;stroke-width:0.26458332px"
         id="path1563" />
      <path
         d="m 268.87695,293.45265 v 1.24023 h 3.10059 v -1.24023 z m -1.86035,1.24023 v -1.24023 h -0.62012 v -1.86035 h 7.44141 v 6.20117 q 0,1.86035 -1.86035,1.86035 h -1.86035 v -1.86035 h 1.86035 v -1.24024 h -3.10059 v 3.10059 h -1.86035 v -3.10059 h -0.62012 v -1.86035 z"
         style="font-style:normal;font-variant:normal;font-weight:normal;font-stretch:normal;font-family:'Japanese 3017';-inkscape-font-specification:'Japanese 3017, ';text-align:center;letter-spacing:0px;word-spacing:0px;text-anchor:middle;stroke-width:0.26458332px"
         id="path1565" />
      <path
         d="m 276.31836,293.45265 v 4.34082 l 3.10059,-0.006 v -4.33462 z m 2.48047,-1.86655 h 2.48047 v 8.06772 h -1.86035 v -0.006 l -3.10059,0.006 h -1.86035 v -8.06152 h 2.48047 v -0.62012 h 1.86035 z"
         style="font-style:normal;font-variant:normal;font-weight:normal;font-stretch:normal;font-family:'Japanese 3017';-inkscape-font-specification:'Japanese 3017, ';text-align:center;letter-spacing:0px;word-spacing:0px;text-anchor:middle;stroke-width:0.26458332px"
         id="path1567" />
      <path
         d="m 283.75977,293.45265 v 4.34082 l 3.10058,-0.006 v -4.33462 z m 2.48046,-1.86655 h 2.48047 v 8.06772 h -1.86035 v -0.006 l -3.10058,0.006 h -1.86036 v -8.06152 h 2.48047 v -0.62012 h 1.86035 z"
         style="font-style:normal;font-variant:normal;font-weight:normal;font-stretch:normal;font-family:'Japanese 3017';-inkscape-font-specification:'Japanese 3017, ';text-align:center;letter-spacing:0px;word-spacing:0px;text-anchor:middle;stroke-width:0.26458332px"
         id="path1569" />
      <path
         d="m 296.16211,296.55323 q 0,3.10059 -3.10059,3.10059 h -3.7207 v -1.86035 h 3.7207 q 1.24024,0 1.24024,-1.24024 h -4.96094 v -1.86035 q 0,-3.10058 3.10059,-3.10058 h 3.7207 v 1.86035 h -3.7207 q -1.24024,0 -1.24024,1.24023 h 4.96094 z"
         style="font-style:normal;font-variant:normal;font-weight:normal;font-stretch:normal;font-family:'Japanese 3017';-inkscape-font-specification:'Japanese 3017, ';text-align:center;letter-spacing:0px;word-spacing:0px;text-anchor:middle;stroke-width:0.26458332px"
         id="path1571" />
      <path
         d="m 299.2627,293.45265 h -2.48047 v -1.86035 h 6.82129 v 1.86035 h -2.48047 v 4.34082 h 0.62011 v 1.86035 h -0.62011 q -1.86035,0 -1.86035,-1.86035 z"
         style="font-style:normal;font-variant:normal;font-weight:normal;font-stretch:normal;font-family:'Japanese 3017';-inkscape-font-specification:'Japanese 3017, ';text-align:center;letter-spacing:0px;word-spacing:0px;text-anchor:middle;stroke-width:0.26458332px"
         id="path1573" />
    </g>
    <g
       aria-label="Bank A/B"
       style="font-style:normal;font-weight:normal;font-size:12.69999981px;line-height:125%;font-family:sans-serif;letter-spacing:0px;word-spacing:0px;fill:#000000;fill-opacity:1;stroke:none;stroke-width:0.26458332px;stroke-linecap:butt;stroke-linejoin:miter;stroke-opacity:1"
       id="text903-0">
      <path
         d="m -2.6200199,158.13965 v 1.24023 h 3.10058584 v -1.24023 z m -1.8603516,1.24023 v -1.24023 h -0.6201172 v -1.86035 h 7.4414062 v 6.20117 q 0,1.86035 -1.86035156,1.86035 H -1.3797856 v -1.86035 h 1.86035154 v -1.24024 H -2.6200199 v 3.10059 h -1.8603516 v -3.10059 h -0.6201172 v -1.86035 z"
         style="font-style:normal;font-variant:normal;font-weight:normal;font-stretch:normal;font-family:'Japanese 3017';-inkscape-font-specification:'Japanese 3017, ';stroke-width:0.26458332px"
         id="path1576" />
      <path
         d="m 6.0616207,156.2793 v -0.62012 h 1.8603515 v 0.62012 h 3.1005858 v 1.86035 h -0.620117 v 4.34082 h 0.620117 v 1.86035 h -0.620117 q -1.8603516,0 -1.8603516,-1.86035 v -1.24024 H 5.4415035 v 1.24024 q 0,1.86035 -1.8603515,1.86035 H 2.9610348 v -1.86035 H 3.581152 v -4.34082 H 2.9610348 v -1.86035 z m 2.4804687,1.86035 H 5.4415035 v 1.24023 h 3.1005859 z"
         style="font-style:normal;font-variant:normal;font-weight:normal;font-stretch:normal;font-family:'Japanese 3017';-inkscape-font-specification:'Japanese 3017, ';stroke-width:0.26458332px"
         id="path1578" />
      <path
         d="m 19.084082,156.2793 v 6.20117 h 0.620117 v 1.86035 h -0.620117 q -1.860352,0 -1.860352,-1.86035 v -4.33462 q -3.714502,0.14883 -3.720703,3.08818 v 3.10679 h -1.860352 v -8.06152 h 1.860352 v 0.99839 q 1.364258,-0.99839 3.720703,-0.99839 z"
         style="font-style:normal;font-variant:normal;font-weight:normal;font-stretch:normal;font-family:'Japanese 3017';-inkscape-font-specification:'Japanese 3017, ';stroke-width:0.26458332px"
         id="path1580" />
      <path
         d="m 22.184668,160.66353 q 0.341064,-1.76734 2.189013,-4.37803 h 2.17041 q -2.213818,3.09438 -2.499072,4.95473 0,1.24024 1.240234,1.24024 h 1.860352 v 1.86035 h -1.860352 q -2.685107,0 -3.100585,-2.29443 v 2.29443 h -1.860352 v -8.06152 h 1.860352 z"
         style="font-style:normal;font-variant:normal;font-weight:normal;font-stretch:normal;font-family:'Japanese 3017';-inkscape-font-specification:'Japanese 3017, ';stroke-width:0.26458332px"
         id="path1582" />
      <path
         d="m 34.016504,156.2793 v -0.62012 h 1.860352 v 0.62012 h 3.100586 v 1.86035 h -0.620118 v 4.34082 h 0.620118 v 1.86035 h -0.620118 q -1.860351,0 -1.860351,-1.86035 v -1.24024 h -3.100586 v 1.24024 q 0,1.86035 -1.860351,1.86035 h -0.620118 v -1.86035 h 0.620118 v -4.34082 h -0.620118 v -1.86035 z m 2.480469,1.86035 h -3.100586 v 1.24023 h 3.100586 z"
         style="font-style:normal;font-variant:normal;font-weight:normal;font-stretch:normal;font-family:'Japanese 3017';-inkscape-font-specification:'Japanese 3017, ';stroke-width:0.26458332px"
         id="path1584" />
      <path
         d="m 41.767969,164.34082 h -2.17041 l 5.270996,-8.06152 h 2.17041 z"
         style="font-style:normal;font-variant:normal;font-weight:normal;font-stretch:normal;font-family:'Japanese 3017';-inkscape-font-specification:'Japanese 3017, ';stroke-width:0.26458332px"
         id="path1586" />
      <path
         d="m 50.139551,158.13965 v 1.24023 h 3.100586 v -1.24023 z m -1.860351,1.24023 v -1.24023 h -0.620118 v -1.86035 h 7.441407 v 6.20117 q 0,1.86035 -1.860352,1.86035 h -1.860352 v -1.86035 h 1.860352 v -1.24024 h -3.100586 v 3.10059 H 48.2792 v -3.10059 h -0.620118 v -1.86035 z"
         style="font-style:normal;font-variant:normal;font-weight:normal;font-stretch:normal;font-family:'Japanese 3017';-inkscape-font-specification:'Japanese 3017, ';stroke-width:0.26458332px"
         id="path1588" />
    </g>
    <g
       aria-label="Tap"
       style="font-style:normal;font-weight:normal;font-size:12.69999981px;line-height:125%;font-family:sans-serif;letter-spacing:0px;word-spacing:0px;fill:#000000;fill-opacity:1;stroke:none;stroke-width:0.26458332px;stroke-linecap:butt;stroke-linejoin:miter;stroke-opacity:1"
       id="text903-5">
      <path
         d="m 277.55859,162.48047 q 0,1.86035 -1.86035,1.86035 h -0.62012 v -1.86035 h 0.62012 v -4.34082 h -2.48047 v -1.86035 h 6.82129 v 1.86035 h -2.48047 z"
         style="font-style:normal;font-variant:normal;font-weight:normal;font-stretch:normal;font-family:'Japanese 3017';-inkscape-font-specification:'Japanese 3017, ';stroke-width:0.26458332px"
         id="path1591" />
      <path
         d="m 283.75977,156.2793 v -0.62012 h 1.86035 v 0.62012 h 3.10058 v 1.86035 h -0.62011 v 4.34082 h 0.62011 v 1.86035 h -0.62011 q -1.86036,0 -1.86036,-1.86035 v -1.24024 h -3.10058 v 1.24024 q 0,1.86035 -1.86035,1.86035 h -0.62012 v -1.86035 h 0.62012 v -4.34082 h -0.62012 v -1.86035 z m 2.48046,1.86035 h -3.10058 v 1.24023 h 3.10058 z"
         style="font-style:normal;font-variant:normal;font-weight:normal;font-stretch:normal;font-family:'Japanese 3017';-inkscape-font-specification:'Japanese 3017, ';stroke-width:0.26458332px"
         id="path1593" />
      <path
         d="m 291.82129,158.13965 v 1.24023 h 3.10058 v -1.24023 z m -1.86035,1.24023 v -3.10058 h 6.82129 v 3.10058 q 0,1.86035 -1.86036,1.86035 h -3.10058 v 3.10059 h -1.86035 v -3.10059 h -0.62012 v -1.86035 z"
         style="font-style:normal;font-variant:normal;font-weight:normal;font-stretch:normal;font-family:'Japanese 3017';-inkscape-font-specification:'Japanese 3017, ';stroke-width:0.26458332px"
         id="path1595" />
    </g>
    <g
       aria-label="Mute"
       style="font-style:normal;font-weight:normal;font-size:12.69999981px;line-height:125%;font-family:sans-serif;letter-spacing:0px;word-spacing:0px;fill:#000000;fill-opacity:1;stroke:none;stroke-width:0.26458332px;stroke-linecap:butt;stroke-linejoin:miter;stroke-opacity:1"
       id="text903-5-9">
      <path
         d="m 141.04736,162.48047 q 0,1.86035 -1.86035,1.86035 h -0.62012 v -1.86035 h 0.62012 v -4.34082 h -0.62012 v -1.86035 h 3.72071 v -0.62012 h 1.86035 v 0.62012 h 3.7207 v 1.86035 h -0.62011 v 4.34082 h 0.62011 v 1.86035 h -0.62011 q -1.86036,0 -1.86036,-1.86035 v -4.34082 h -1.24023 v 3.10058 h -1.86035 v -3.10058 h -1.24024 z"
         style="font-style:normal;font-variant:normal;font-weight:normal;font-stretch:normal;font-family:'Japanese 3017';-inkscape-font-specification:'Japanese 3017, ';stroke-width:0.26458332px"
         id="path1631" />
      <path
         d="m 155.93018,164.34082 h -0.83096 q -5.99033,0 -5.99033,-5.58105 v -0.62012 h -0.62012 v -1.86035 h 2.48047 v 2.48047 q 0,3.22461 3.10058,3.65249 v -6.13296 h 1.86036 z"
         style="font-style:normal;font-variant:normal;font-weight:normal;font-stretch:normal;font-family:'Japanese 3017';-inkscape-font-specification:'Japanese 3017, ';stroke-width:0.26458332px"
         id="path1633" />
      <path
         d="m 159.03076,158.13965 h -2.48047 v -1.86035 h 6.82129 v 1.86035 h -2.48047 v 4.34082 h 0.62012 v 1.86035 h -0.62012 q -1.86035,0 -1.86035,-1.86035 z"
         style="font-style:normal;font-variant:normal;font-weight:normal;font-stretch:normal;font-family:'Japanese 3017';-inkscape-font-specification:'Japanese 3017, ';stroke-width:0.26458332px"
         id="path1635" />
      <path
         d="m 166.47217,159.37988 h 3.7207 v 1.86035 h -3.7207 q 0,1.24024 1.24023,1.24024 h 3.72071 v 1.86035 h -3.72071 q -3.10058,0 -3.10058,-3.10059 h -0.62012 v -1.86035 h 0.62012 v -1.24023 h -0.62012 v -1.86035 h 7.44141 v 1.86035 h -4.96094 z"
         style="font-style:normal;font-variant:normal;font-weight:normal;font-stretch:normal;font-family:'Japanese 3017';-inkscape-font-specification:'Japanese 3017, ';stroke-width:0.26458332px"
         id="path1637" />
    </g>
    <g
       aria-label="FX UP"
       style="font-style:normal;font-weight:normal;font-size:12.69999981px;line-height:125%;font-family:sans-serif;letter-spacing:0px;word-spacing:0px;fill:#000000;fill-opacity:1;stroke:none;stroke-width:0.26458332px;stroke-linecap:butt;stroke-linejoin:miter;stroke-opacity:1"
       id="text903-5-95">
      <path
         d="m 75.092384,162.17041 q 0,1.86035 -1.860351,1.86035 h -0.620117 v -1.86035 h 0.620117 v -4.34082 h -0.620117 v -1.86035 h 7.441406 v 1.86035 h -4.960938 v 1.24023 h 3.720703 v 1.86036 h -3.720703 z"
         style="font-style:normal;font-variant:normal;font-weight:normal;font-stretch:normal;font-family:'Japanese 3017';-inkscape-font-specification:'Japanese 3017, ';stroke-width:0.26458332px"
         id="path1640" />
      <path
         d="m 86.186281,161.08521 q 0.713134,1.0852 1.320849,1.0852 h 0.607715 v 1.86035 h -0.620117 q -1.550293,0 -2.325439,-1.18442 l -0.775147,-1.18443 -1.550293,2.36885 h -2.17041 L 83.308937,160 82.602003,158.91479 q -0.713134,-1.0852 -1.320849,-1.0852 h -0.607715 v -1.86035 h 0.620117 q 1.550293,0 2.32544,1.18442 l 0.775146,1.18443 1.550293,-2.36885 h 2.17041 L 85.479347,160 Z"
         style="font-style:normal;font-variant:normal;font-weight:normal;font-stretch:normal;font-family:'Japanese 3017';-inkscape-font-specification:'Japanese 3017, ';stroke-width:0.26458332px"
         id="path1642" />
      <path
         d="m 96.846096,162.17041 v -6.20117 h 1.860351 v 6.20117 h 0.620118 v 1.86035 h -7.441406 v -4.96094 q 0,-3.10058 3.100585,-3.10058 h 0.620118 v 1.86035 h -0.620118 q -1.240234,0 -1.240234,1.24023 v 3.10059 z"
         style="font-style:normal;font-variant:normal;font-weight:normal;font-stretch:normal;font-family:'Japanese 3017';-inkscape-font-specification:'Japanese 3017, ';stroke-width:0.26458332px"
         id="path1644" />
      <path
         d="m 102.42715,157.82959 v 1.24023 h 3.10059 v -1.24023 z m -1.86035,1.24023 v -3.10058 h 6.82129 v 3.10058 q 0,1.86036 -1.86035,1.86036 h -3.10059 v 3.10058 h -1.86035 v -3.10058 h -0.620118 v -1.86036 z"
         style="font-style:normal;font-variant:normal;font-weight:normal;font-stretch:normal;font-family:'Japanese 3017';-inkscape-font-specification:'Japanese 3017, ';stroke-width:0.26458332px"
         id="path1646" />
    </g>
    <g
       aria-label="Loop"
       style="font-style:normal;font-weight:normal;font-size:12.69999981px;line-height:125%;font-family:sans-serif;letter-spacing:0px;word-spacing:0px;fill:#000000;fill-opacity:1;stroke:none;stroke-width:0.26458332px;stroke-linecap:butt;stroke-linejoin:miter;stroke-opacity:1"
       id="text903-5-95-1">
      <path
         d="m 205.7373,162.48047 v -6.20117 h 1.86036 v 6.20117 h 2.48046 v -0.62012 h 1.86036 v 0.62012 q 0,1.86035 -1.86036,1.86035 h -4.96093 v -1.86035 z"
         style="font-style:normal;font-variant:normal;font-weight:normal;font-stretch:normal;font-family:'Japanese 3017';-inkscape-font-specification:'Japanese 3017, ';stroke-width:0.26458332px"
         id="path1649" />
      <path
         d="m 214.41895,158.13965 v 4.34082 l 3.10058,-0.006 v -4.33462 z m 2.48046,-1.86655 h 2.48047 v 8.06772 h -1.86035 v -0.006 l -3.10058,0.006 h -1.86036 v -8.06152 h 2.48047 v -0.62012 h 1.86035 z"
         style="font-style:normal;font-variant:normal;font-weight:normal;font-stretch:normal;font-family:'Japanese 3017';-inkscape-font-specification:'Japanese 3017, ';stroke-width:0.26458332px"
         id="path1651" />
      <path
         d="m 221.86035,158.13965 v 4.34082 l 3.10059,-0.006 v -4.33462 z m 2.48047,-1.86655 h 2.48047 v 8.06772 h -1.86035 v -0.006 l -3.10059,0.006 H 220 v -8.06152 h 2.48047 v -0.62012 h 1.86035 z"
         style="font-style:normal;font-variant:normal;font-weight:normal;font-stretch:normal;font-family:'Japanese 3017';-inkscape-font-specification:'Japanese 3017, ';stroke-width:0.26458332px"
         id="path1653" />
      <path
         d="m 229.92187,158.13965 v 1.24023 h 3.10059 v -1.24023 z m -1.86035,1.24023 v -3.10058 h 6.82129 v 3.10058 q 0,1.86035 -1.86035,1.86035 h -3.10059 v 3.10059 h -1.86035 v -3.10059 h -0.62011 v -1.86035 z"
         style="font-style:normal;font-variant:normal;font-weight:normal;font-stretch:normal;font-family:'Japanese 3017';-inkscape-font-specification:'Japanese 3017, ';stroke-width:0.26458332px"
         id="path1655" />
    </g>
    <path
       style="opacity:1;vector-effect:none;fill:none;fill-opacity:1;fill-rule:nonzero;stroke:#000000;stroke-width:0.99999994;stroke-linecap:butt;stroke-linejoin:miter;stroke-miterlimit:4;stroke-dasharray:none;stroke-dashoffset:0;stroke-opacity:1"
       d="M 9.9810572,237.86035 H 243.52304 c 6.53719,0 11.79999,5.2628 11.79999,11.8 v 35.53968 c 0,6.53719 -5.2628,11.79999 -11.79999,11.79999 H 9.9810572 c -6.537197,0 -11.7999945,-5.2628 -11.7999945,-11.79999 v -35.53968 c 0,-6.5372 5.2627975,-11.8 11.7999945,-11.8 z"
       id="rect1071" />
    <path
       style="opacity:1;vector-effect:none;fill:none;fill-opacity:1;fill-rule:nonzero;stroke:#000000;stroke-width:1;stroke-linecap:butt;stroke-linejoin:miter;stroke-miterlimit:4;stroke-dasharray:none;stroke-dashoffset:0;stroke-opacity:1"
       d="M 11.799996,168.87389 H 298.72787 c 6.5372,0 11.79999,1.28971 11.79999,2.89173 0,1.60202 -5.26279,2.89174 -11.79999,2.89174 H 11.799996 C 5.2627988,174.65736 1.2567208e-6,173.36764 1.2567208e-6,171.76562 1.2567208e-6,170.1636 5.2627988,168.87389 11.799996,168.87389 Z"
       id="rect1088" />
    <path
       style="fill:#000000;stroke-width:1"
       d="m 186.37394,218.85003 c -7.0275,-0.44234 -13.30373,-4.57876 -16.47893,-10.86063 -1.21456,-2.4029 -1.89401,-4.8787 -2.09359,-7.62864 -0.0407,-0.56137 -0.0397,-2.18079 0.002,-2.74377 0.25806,-3.50564 1.35675,-6.73847 3.26351,-9.60283 1.94775,-2.92593 4.56203,-5.23782 7.6945,-6.80449 2.35594,-1.17832 4.84699,-1.85065 7.56253,-2.04112 0.69336,-0.0487 2.64598,-0.0191 3.28568,0.0496 2.55899,0.27518 4.81275,0.93309 7.01011,2.04639 3.97441,2.01366 7.15564,5.29605 9.03941,9.32685 1.52222,3.25715 2.13104,6.95344 1.74237,10.57816 -0.64597,6.02419 -4.03229,11.43792 -9.17992,14.67597 -2.54959,1.60379 -5.45421,2.61132 -8.43751,2.92671 -1.03972,0.10992 -2.40433,0.14103 -3.4099,0.0778 z m 1.97155,-0.88496 c 0.83504,-0.0348 1.44462,-0.0928 2.19962,-0.20903 5.62533,-0.86619 10.60011,-4.26584 13.49371,-9.22134 2.66872,-4.57039 3.29257,-10.08841 1.715,-15.16967 -0.66457,-2.14058 -1.74683,-4.20546 -3.14519,-6.00077 -0.88449,-1.13558 -2.00075,-2.2631 -3.18186,-3.21394 -1.78687,-1.43849 -4.02936,-2.61873 -6.26118,-3.2953 -1.25981,-0.3819 -2.44121,-0.61231 -3.85756,-0.75235 -0.69031,-0.0682 -2.48424,-0.0775 -3.172,-0.0164 -3.24454,0.28833 -6.10086,1.26078 -8.81814,3.00216 -1.60204,1.02668 -3.30507,2.57665 -4.53993,4.13195 -2.1278,2.67991 -3.49327,5.87992 -3.9423,9.23884 -0.13205,0.9878 -0.16027,1.4465 -0.159,2.58516 0.001,1.15113 0.039,1.69592 0.18878,2.72476 0.87284,5.99654 4.6098,11.23801 10.03845,14.07995 2.41644,1.26502 5.17714,2.00098 7.92998,2.11401 0.32276,0.0133 0.62965,0.026 0.68199,0.0284 0.0523,0.002 0.42567,-0.01 0.82963,-0.0264 z m -1.92398,-0.65297 c -0.061,-0.006 -0.28944,-0.0274 -0.50751,-0.046 -1.2933,-0.11003 -2.75889,-0.41398 -4.04484,-0.83883 -2.23532,-0.73851 -4.3005,-1.89662 -6.13726,-3.44164 -0.90292,-0.75949 -2.09184,-2.02731 -2.82624,-3.01376 -2.70746,-3.63671 -3.96695,-8.10522 -3.56278,-12.64039 0.4901,-5.49946 3.4098,-10.44718 8.00674,-13.56818 4.97579,-3.37824 11.43484,-4.07657 17.05902,-1.84439 3.27885,1.30134 6.10032,3.51119 8.17201,6.40056 0.98393,1.37227 1.85697,3.06688 2.41225,4.6823 1.29586,3.76996 1.323,7.92983 0.0765,11.73631 -1.80365,5.50817 -6.15663,9.86276 -11.68489,11.68919 -1.21485,0.40136 -2.43122,0.66244 -3.85451,0.82729 -0.40262,0.0466 -2.80425,0.0911 -3.10857,0.0575 z m 2.50747,-0.52138 c 5.18531,-0.39719 9.85465,-2.95753 12.98889,-7.12224 3.02934,-4.0253 4.20639,-9.21765 3.21374,-14.17673 -0.93793,-4.6857 -3.7267,-8.80307 -7.75085,-11.4434 -6.45091,-4.23259 -14.91964,-3.81335 -20.93516,1.03638 -1.68336,1.35713 -3.1785,3.0978 -4.26641,4.96705 -0.30202,0.51893 -0.82734,1.58222 -1.05783,2.14109 -1.99472,4.83686 -1.7549,10.35603 0.65125,14.98768 0.50707,0.97607 1.17591,2.01038 1.84416,2.85183 1.44138,1.81501 3.25355,3.37223 5.22368,4.48876 2.17303,1.23153 4.7372,2.03551 7.13699,2.23779 0.21807,0.0183 0.44646,0.0382 0.50751,0.0439 0.27722,0.026 2.06071,0.0172 2.44403,-0.0122 z m -2.88094,-2.6002 c -0.0786,-0.0732 -0.0809,-0.0812 -0.27788,-0.96733 -0.0904,-0.40621 -0.16848,-0.68704 -0.20036,-0.71975 -0.0325,-0.0333 -0.20889,-0.0849 -0.46466,-0.13592 -0.54911,-0.10954 -1.14378,-0.26803 -1.66113,-0.44259 -0.3619,-0.12214 -0.43422,-0.13741 -0.49352,-0.10441 -0.0383,0.0213 -0.20423,0.18824 -0.36894,0.37101 -0.16472,0.18277 -0.40659,0.44328 -0.53751,0.57889 -0.35786,0.37072 -0.24165,0.40288 -1.81898,-0.50342 -0.71792,-0.41251 -1.33849,-0.78145 -1.37906,-0.81988 -0.13864,-0.13139 -0.12371,-0.25139 0.1322,-1.06254 0.1293,-0.40978 0.229,-0.7609 0.22158,-0.78025 -0.007,-0.0193 -0.14453,-0.14797 -0.30468,-0.28582 -0.37998,-0.32708 -0.98989,-0.9378 -1.30128,-1.30299 -0.1361,-0.15961 -0.26897,-0.29848 -0.29527,-0.30856 -0.0263,-0.01 -0.37172,0.0844 -0.76759,0.20989 -0.80032,0.25378 -0.94643,0.27464 -1.06358,0.15183 -0.0978,-0.10258 -1.53884,-2.59815 -1.58264,-2.74091 -0.0523,-0.17039 0.0291,-0.27718 0.64041,-0.84038 0.30455,-0.28057 0.56466,-0.52969 0.57805,-0.55361 0.0142,-0.0254 -0.0326,-0.2064 -0.11309,-0.43637 -0.0756,-0.2161 -0.16294,-0.48924 -0.19418,-0.607 l -0.0568,-0.21412 h -2.01402 -2.01402 l 0.95973,-0.97538 0.95973,-0.9754 -0.004,-1.5827 -0.004,-1.58269 -0.93893,-0.96258 -0.93893,-0.9626 1.99033,-0.009 1.99033,-0.009 0.13349,-0.42821 c 0.0734,-0.23552 0.1568,-0.49068 0.18531,-0.56702 0.0285,-0.0763 0.0518,-0.17489 0.0518,-0.21902 0,-0.0877 0.0136,-0.0736 -0.70473,-0.73271 -0.58061,-0.53281 -0.59883,-0.56715 -0.44974,-0.84759 0.32249,-0.60665 1.46363,-2.55091 1.53867,-2.62163 0.051,-0.0479 0.12764,-0.0872 0.17047,-0.0872 0.0429,0 0.41999,0.10698 0.83813,0.23765 0.41815,0.13071 0.78181,0.22938 0.80816,0.21927 0.0264,-0.01 0.15884,-0.14917 0.29444,-0.30902 0.31195,-0.36776 0.92243,-0.97762 1.30308,-1.30175 0.21996,-0.18729 0.29339,-0.26897 0.29339,-0.32636 0,-0.0421 -0.0999,-0.39349 -0.22204,-0.78088 -0.12214,-0.38738 -0.22204,-0.75002 -0.22204,-0.80585 0,-0.0604 0.0289,-0.13402 0.0714,-0.18171 0.0392,-0.0441 0.6566,-0.418 1.37189,-0.83087 1.08811,-0.62808 1.32554,-0.75327 1.45373,-0.76645 l 0.15321,-0.0158 0.21207,0.2184 c 0.11664,0.12006 0.36733,0.38967 0.55712,0.59903 0.18978,0.20934 0.36541,0.3926 0.39028,0.40723 0.0289,0.017 0.21998,-0.0315 0.52675,-0.1337 0.56342,-0.18756 1.21776,-0.35953 1.69109,-0.44444 0.22621,-0.0406 0.35473,-0.0796 0.39269,-0.11921 0.0368,-0.0384 0.1082,-0.2909 0.20505,-0.72497 0.19962,-0.89487 0.19958,-0.89471 0.27752,-0.96732 0.0664,-0.0619 0.11101,-0.0636 1.69791,-0.0636 1.05013,0 1.65124,0.011 1.6903,0.0325 0.0334,0.0178 0.0752,0.0595 0.0929,0.0928 0.0177,0.0331 0.11003,0.40621 0.20505,0.82893 0.095,0.42274 0.19144,0.78726 0.21426,0.81005 0.0229,0.0227 0.19853,0.0713 0.39043,0.10771 0.49781,0.0945 1.24652,0.2923 1.73997,0.45969 0.23332,0.0791 0.44582,0.13561 0.47222,0.12549 0.0264,-0.01 0.20589,-0.19242 0.39885,-0.40509 0.70373,-0.77553 0.74689,-0.81489 0.89352,-0.81489 0.0718,0 0.17525,0.0231 0.22991,0.0513 0.33644,0.17397 2.61659,1.51479 2.64917,1.55781 0.0773,0.10208 0.0385,0.31825 -0.18384,1.02594 -0.12292,0.39118 -0.21609,0.73981 -0.20704,0.77471 0.009,0.035 0.106,0.13484 0.21547,0.22208 0.25779,0.20544 1.16342,1.10516 1.42083,1.41153 0.10991,0.13085 0.21908,0.24933 0.24253,0.26329 0.0258,0.0154 0.34723,-0.0694 0.8118,-0.21415 0.42303,-0.13176 0.79484,-0.23954 0.82624,-0.23951 0.16194,1.2e-4 0.22715,0.0864 0.73431,0.97217 0.27825,0.48593 0.63152,1.09926 0.78506,1.36298 0.28004,0.48098 0.32137,0.60358 0.24908,0.73867 -0.0165,0.0309 -0.29488,0.30205 -0.61854,0.60253 -0.32365,0.30046 -0.58846,0.56707 -0.58846,0.59243 0,0.0254 0.0705,0.25646 0.15667,0.51352 0.0862,0.25707 0.17236,0.52806 0.19155,0.60221 l 0.0348,0.13482 h 1.93369 c 1.06353,0 1.9337,0.007 1.9337,0.016 0,0.009 -0.39955,0.46201 -0.88787,1.00709 l -0.88787,0.99107 -3.6e-4,1.49139 -3.6e-4,1.49138 0.90726,1.0145 0.90725,1.01448 -1.95724,0.0159 -1.95724,0.0159 -0.11944,0.38064 c -0.0658,0.20935 -0.14278,0.4431 -0.17123,0.51943 -0.10747,0.2882 -0.0634,0.40047 0.26244,0.6707 0.11175,0.0927 0.35809,0.31953 0.54746,0.50419 0.32522,0.31713 0.34429,0.3428 0.3438,0.46264 -4.8e-4,0.10649 -0.10013,0.2998 -0.62174,1.20535 -0.34166,0.59316 -0.69721,1.20768 -0.7901,1.36558 -0.16598,0.28218 -0.25451,0.36315 -0.39699,0.36315 -0.0336,0 -0.40437,-0.10759 -0.82382,-0.23914 -0.45301,-0.14205 -0.77968,-0.22898 -0.80464,-0.2141 -0.0231,0.0137 -0.13295,0.13209 -0.24414,0.26293 -0.31779,0.37405 -0.90286,0.96383 -1.26695,1.27721 -0.18318,0.15766 -0.34525,0.31148 -0.36016,0.34183 -0.0187,0.038 0.0433,0.28119 0.19847,0.78028 0.24693,0.79385 0.2708,0.95888 0.15376,1.06302 -0.10136,0.0902 -2.61428,1.54101 -2.74231,1.58327 -0.16713,0.0551 -0.27202,-0.0248 -0.83201,-0.63484 -0.27944,-0.30437 -0.52994,-0.56564 -0.55669,-0.58062 -0.0322,-0.018 -0.2126,0.0264 -0.53209,0.13094 -0.59721,0.19537 -1.08823,0.32596 -1.62539,0.43228 -0.29019,0.0575 -0.42719,0.0992 -0.46246,0.14066 -0.0277,0.0328 -0.117,0.36785 -0.20032,0.75211 -0.0827,0.38119 -0.16465,0.73941 -0.1823,0.79607 -0.0639,0.20531 -4.7e-4,0.19834 -1.8046,0.19834 -1.59366,0 -1.63818,-0.001 -1.70463,-0.0636 z m 3.10139,-2.58538 c 2.46489,-0.29581 4.6904,-1.24037 6.56603,-2.7868 1.82489,-1.50459 3.18348,-3.47027 3.93716,-5.69647 0.0676,-0.19981 0.12299,-0.38179 0.12299,-0.40442 0,-0.029 -0.0544,-0.0412 -0.18378,-0.0412 h -0.18378 l -0.089,0.27756 c -0.81015,2.52502 -2.54388,4.79683 -4.80889,6.30143 -0.5948,0.39511 -0.93341,0.58844 -1.52951,0.87324 -1.6395,0.78332 -3.3608,1.1737 -5.17926,1.17463 -1.35082,9.4e-4 -2.53225,-0.1803 -3.75882,-0.57581 -3.64111,-1.17411 -6.5404,-4.00913 -7.78751,-7.61489 l -0.15085,-0.43616 h -0.18613 c -0.10234,0 -0.18612,0.006 -0.18612,0.0142 0,0.0531 0.19658,0.62064 0.3576,1.03253 0.98888,2.52957 2.89097,4.76243 5.27401,6.19124 1.68918,1.01279 3.58908,1.60369 5.62897,1.75073 0.37897,0.0273 1.74674,-0.011 2.15695,-0.0599 z M 187.5,206.68889 v -4.01258 h -5.37868 -5.37867 l 0.0216,0.0714 c 0.18752,0.61712 0.76368,1.83952 1.17762,2.49847 1.01525,1.61616 2.43677,2.98717 4.08635,3.94113 0.30116,0.17418 1.14553,0.5831 1.45912,0.70667 1.18439,0.46668 2.67291,0.78543 3.75088,0.80319 l 0.26169,0.005 z m -5.05274,2.08452 c -0.0472,-0.0493 -0.0858,-0.10355 -0.0858,-0.12042 0,-0.0169 0.10661,-0.13672 0.23696,-0.26617 0.13035,-0.12947 0.22983,-0.24254 0.2211,-0.25128 -0.009,-0.009 -0.12968,0.0972 -0.26877,0.23551 l -0.25287,0.25138 -0.10233,-0.10233 -0.10233,-0.10233 0.25192,-0.2534 c 0.19896,-0.20014 0.24374,-0.26158 0.213,-0.29231 -0.0307,-0.0308 -0.0922,0.0141 -0.2923,0.21301 l -0.25341,0.25192 -0.10233,-0.10233 -0.10234,-0.10233 0.25138,-0.25288 c 0.13828,-0.13908 0.24103,-0.26325 0.22835,-0.27593 -0.0127,-0.0127 -0.13653,0.0897 -0.27521,0.22764 l -0.25217,0.2507 -0.0965,-0.0924 -0.0965,-0.0924 0.24479,-0.24625 c 0.13465,-0.13544 0.23443,-0.2566 0.22177,-0.26926 -0.0127,-0.0127 -0.12643,0.0797 -0.25281,0.20522 -0.12638,0.12554 -0.24295,0.22825 -0.25902,0.22825 -0.016,0 -0.0696,-0.0386 -0.11884,-0.0858 l -0.0896,-0.0858 0.24456,-0.24599 c 0.24325,-0.24469 0.24424,-0.24636 0.18445,-0.31241 -0.0515,-0.0568 -0.0542,-0.0759 -0.0189,-0.13233 0.0377,-0.0604 0.0224,-0.0849 -0.18379,-0.29237 -0.12373,-0.12456 -0.22495,-0.24149 -0.22495,-0.25985 0,-0.04 0.13473,-0.17132 0.17575,-0.17132 0.0159,0 0.13234,0.1027 0.25872,0.22827 0.12638,0.12553 0.24014,0.21789 0.2528,0.20525 0.0127,-0.0127 -0.0797,-0.12641 -0.20525,-0.2528 -0.12554,-0.12638 -0.22827,-0.2448 -0.22827,-0.26316 0,-0.04 0.13474,-0.17131 0.17577,-0.17131 0.0159,0 0.13256,0.10295 0.25924,0.22878 0.18175,0.18054 0.23852,0.22058 0.26918,0.18992 0.0307,-0.0307 -0.01,-0.0874 -0.18992,-0.26917 -0.12583,-0.12668 -0.22879,-0.24534 -0.22879,-0.26371 0,-0.0183 0.0361,-0.0672 0.0802,-0.10869 l 0.0802,-0.0753 0.24664,0.24521 c 0.13566,0.13486 0.25704,0.23481 0.26973,0.22212 0.0127,-0.0127 -0.0877,-0.13449 -0.22303,-0.27066 l -0.24612,-0.24757 0.10233,-0.10233 0.10233,-0.10233 0.24757,0.24611 c 0.13617,0.13538 0.25797,0.23574 0.27066,0.22304 0.0127,-0.0127 -0.0873,-0.13417 -0.22233,-0.26994 l -0.24542,-0.24687 0.0924,-0.0965 0.0924,-0.0965 0.24625,0.24481 c 0.13542,0.13463 0.2566,0.23443 0.26926,0.22177 0.0127,-0.0127 -0.0797,-0.12643 -0.20522,-0.25283 -0.12554,-0.12637 -0.22825,-0.2448 -0.22825,-0.26315 0,-0.04 0.13473,-0.17131 0.17575,-0.17131 0.0159,0 0.13233,0.1027 0.25871,0.22825 0.1264,0.12555 0.24015,0.2179 0.2528,0.20525 0.0127,-0.0127 -0.0797,-0.12641 -0.20526,-0.25279 -0.12554,-0.12638 -0.22825,-0.2448 -0.22825,-0.26317 0,-0.0183 0.0361,-0.0672 0.0802,-0.10869 l 0.0802,-0.0753 0.24751,0.24606 c 0.2203,0.21902 0.25218,0.24043 0.29001,0.19485 0.0372,-0.0448 0.0122,-0.0822 -0.20144,-0.2966 l -0.24395,-0.24538 0.0965,-0.0924 0.0965,-0.0924 0.24687,0.24541 c 0.13578,0.13498 0.25725,0.23504 0.26995,0.22234 0.0127,-0.0127 -0.0877,-0.13449 -0.22304,-0.27065 l -0.24612,-0.24758 0.10233,-0.10233 0.10233,-0.10234 0.24758,0.24613 c 0.13616,0.13535 0.25796,0.23573 0.27065,0.22303 0.0127,-0.0127 -0.0873,-0.13417 -0.22233,-0.26994 l -0.24542,-0.24687 0.0924,-0.0965 0.0924,-0.0965 0.24625,0.2448 c 0.13542,0.13464 0.2566,0.23444 0.26926,0.22177 0.0127,-0.0127 -0.0797,-0.12643 -0.20522,-0.25282 -0.12554,-0.12638 -0.22826,-0.2448 -0.22826,-0.26316 0,-0.04 0.13474,-0.17131 0.17576,-0.17131 0.0159,0 0.13222,0.10258 0.25848,0.22802 0.22651,0.225 0.2304,0.22723 0.29448,0.16924 0.0633,-0.0573 0.0667,-0.0571 0.13738,0.01 l 0.0724,0.0681 0.23571,-0.23729 c 0.12964,-0.13051 0.25143,-0.2373 0.27062,-0.2373 0.0419,0 0.17287,0.13427 0.17287,0.17731 0,0.0168 -0.10662,0.13639 -0.23698,0.26585 -0.13033,0.12946 -0.22983,0.24254 -0.22109,0.25128 0.009,0.009 0.12967,-0.0972 0.26876,-0.23551 l 0.25287,-0.25139 0.10233,0.10233 0.10233,0.10233 -0.25138,0.25288 c -0.13827,0.13908 -0.24102,0.26325 -0.22834,0.27591 0.0127,0.0127 0.13684,-0.0901 0.27593,-0.22833 l 0.25287,-0.25139 0.10233,0.10233 0.10233,0.10233 -0.25191,0.25341 c -0.19897,0.20014 -0.24374,0.26158 -0.21301,0.2923 0.0307,0.0307 0.0921,-0.0139 0.29159,-0.21229 l 0.25271,-0.25122 0.0946,0.0906 0.0946,0.0906 -0.2367,0.25161 c -0.13018,0.13839 -0.2367,0.26794 -0.2367,0.28789 0,0.0199 0.11089,-0.074 0.24653,-0.20882 0.1356,-0.13479 0.26158,-0.24507 0.27995,-0.24507 0.0401,0 0.17136,0.13472 0.17136,0.17579 0,0.0159 -0.10783,0.13749 -0.23972,0.27012 -0.21181,0.21306 -0.23384,0.246 -0.18927,0.283 0.0457,0.0379 0.0445,0.0483 -0.0135,0.10992 l -0.0639,0.068 0.2373,0.23571 c 0.1305,0.12963 0.23729,0.25142 0.23729,0.27062 0,0.0419 -0.13426,0.17286 -0.1773,0.17286 -0.0168,0 -0.13611,-0.10637 -0.26522,-0.23633 -0.12911,-0.12998 -0.248,-0.22813 -0.26422,-0.21812 -0.0163,0.01 0.0866,0.13482 0.2283,0.27733 l 0.25776,0.2591 -0.0965,0.0924 -0.0965,0.0924 -0.25217,-0.25068 c -0.1387,-0.13789 -0.26254,-0.24032 -0.27522,-0.22765 -0.0127,0.0127 0.0901,0.13686 0.22834,0.27593 l 0.25139,0.25288 -0.10233,0.10234 -0.10234,0.10233 -0.25287,-0.25139 c -0.13908,-0.13827 -0.26325,-0.24103 -0.27593,-0.22835 -0.0127,0.0127 0.0897,0.13653 0.22764,0.27522 l 0.25069,0.25216 -0.0924,0.0965 -0.0924,0.0965 -0.25763,-0.25628 c -0.2083,-0.20722 -0.26451,-0.24797 -0.29364,-0.21288 -0.0285,0.0344 0.0131,0.0922 0.20077,0.27859 0.13023,0.12937 0.23678,0.25074 0.23678,0.26972 0,0.0189 -0.0397,0.0726 -0.0884,0.11921 l -0.0885,0.0847 -0.25021,-0.25168 c -0.13761,-0.13843 -0.26344,-0.2435 -0.27964,-0.2335 -0.0163,0.01 0.0866,0.13481 0.22832,0.27732 l 0.25776,0.2591 -0.0896,0.0858 c -0.0493,0.0472 -0.10355,0.0858 -0.12042,0.0858 -0.0169,0 -0.13671,-0.10661 -0.26618,-0.23697 -0.12947,-0.13034 -0.24254,-0.22984 -0.25128,-0.22109 -0.009,0.009 0.0972,0.12968 0.23551,0.26875 l 0.25139,0.25287 -0.10233,0.10233 -0.10233,0.10234 -0.25288,-0.25138 c -0.13908,-0.13827 -0.26324,-0.24103 -0.27592,-0.22835 -0.0127,0.0127 0.0901,0.13685 0.22834,0.27593 l 0.25138,0.25287 -0.10233,0.10233 -0.10233,0.10234 -0.25287,-0.2514 c -0.13909,-0.13826 -0.26003,-0.24424 -0.26876,-0.2355 -0.009,0.009 0.0907,0.12178 0.22109,0.25127 0.13033,0.12947 0.23696,0.24925 0.23696,0.26617 0,0.0169 -0.0386,0.0711 -0.0858,0.12042 l -0.086,0.0896 -0.25762,-0.25627 c -0.20831,-0.20722 -0.26452,-0.24798 -0.29364,-0.21289 -0.0285,0.0343 0.0131,0.0922 0.20076,0.2786 0.13023,0.12936 0.23678,0.25074 0.23678,0.26971 0,0.0189 -0.0399,0.0726 -0.0884,0.11921 l -0.0885,0.0847 -0.2502,-0.25167 c -0.13762,-0.13844 -0.26346,-0.2435 -0.27965,-0.23349 -0.0161,0.01 0.0866,0.13479 0.22832,0.2773 l 0.25776,0.2591 -0.0896,0.0858 c -0.0493,0.0472 -0.10356,0.0859 -0.12043,0.0859 -0.0169,0 -0.13675,-0.10674 -0.26629,-0.23709 -0.21349,-0.21493 -0.24041,-0.23264 -0.28807,-0.18952 -0.0467,0.0423 -0.0571,0.0421 -0.0943,-0.002 -0.0367,-0.0443 -0.0724,-0.0197 -0.29929,0.20607 l -0.25763,0.25627 -0.0858,-0.0896 z m 6.78147,1.84782 c 2.54852,-0.33013 4.87549,-1.47919 6.70944,-3.31314 1.25555,-1.25555 2.12094,-2.62272 2.74607,-4.33837 l 0.10686,-0.29341 h -5.39184 -5.39181 v 4.0175 4.01748 l 0.42029,-0.0204 c 0.23117,-0.011 0.59158,-0.0426 0.80093,-0.0697 z m 1.06214,-2.02122 c -0.0577,-0.0393 -0.13279,-0.12516 -0.16672,-0.19091 -0.11272,-0.21844 -0.0848,-0.26354 0.56308,-0.91073 0.34472,-0.34435 0.59678,-0.57287 0.61191,-0.55477 0.0142,0.0169 0.14252,0.15268 0.28525,0.30168 l 0.25952,0.2709 -0.60096,0.5776 c -0.56855,0.54645 -0.60759,0.57761 -0.724,0.57761 -0.0753,0 -0.16377,-0.0276 -0.22808,-0.0714 z m 2.7852,-0.0364 c -0.13994,-0.0504 -0.7624,-0.63218 -1.68502,-1.57492 l -0.63976,-0.6537 -0.36479,0.002 c -0.33744,0.002 -0.37824,-0.005 -0.54443,-0.0857 -0.22819,-0.11211 -0.41303,-0.29669 -0.52392,-0.52335 -0.0711,-0.14555 -0.089,-0.23007 -0.0977,-0.46513 -0.0158,-0.42797 0.001,-0.43371 0.33242,-0.10918 0.15318,0.15029 0.30323,0.28176 0.33345,0.29221 0.0675,0.0232 0.28192,-0.0496 0.40619,-0.13809 0.085,-0.0605 0.28428,-0.41634 0.28428,-0.50754 0,-0.0216 -0.13062,-0.17259 -0.2903,-0.33539 l -0.29029,-0.29603 0.0921,-0.0357 c 0.0526,-0.0204 0.19608,-0.03 0.33435,-0.0224 0.42374,0.0233 0.76842,0.25097 0.94251,0.62226 0.0752,0.16033 0.084,0.21657 0.0841,0.53517 l 3.6e-4,0.35601 1.11538,1.11896 c 0.96807,0.97119 1.11828,1.13465 1.13731,1.23772 0.0704,0.38152 -0.2796,0.70704 -0.6261,0.58225 z m 0.25797,-0.32318 c 0.1203,-0.10123 0.12474,-0.19926 0.0139,-0.31005 -0.12768,-0.12768 -0.26683,-0.10111 -0.35703,0.0682 -0.049,0.0921 -0.0219,0.1779 0.082,0.25966 0.10636,0.0836 0.14342,0.0811 0.26102,-0.0179 z m -1.01425,-1.80998 -0.2997,-0.30409 0.2082,0.0179 0.20819,0.0178 0.66849,-0.6723 c 0.42888,-0.43134 0.72075,-0.75293 0.81433,-0.89726 0.1717,-0.26482 0.46293,-0.55219 0.55962,-0.55219 0.0797,0 0.25322,0.16257 0.25322,0.23736 0,0.0828 -0.31183,0.3909 -0.57096,0.56425 -0.15103,0.10098 -0.48268,0.40358 -0.9083,0.82861 l -0.6704,0.66948 0.0236,0.19033 c 0.013,0.10465 0.0213,0.19343 0.0186,0.19723 -0.002,0.004 -0.13997,-0.12992 -0.30481,-0.29717 z m 11.61114,-4.09554 c 0,-0.0133 -0.6352,-0.7349 -1.41154,-1.60341 -0.77636,-0.86852 -1.41154,-1.58405 -1.41154,-1.59006 0,-0.006 0.6361,-0.7226 1.41356,-1.59238 l 1.41356,-1.58142 -8.08801,-0.007 c -4.44841,-0.005 -11.73543,-0.005 -16.19339,0 l -8.10538,0.007 1.56493,1.58749 1.56494,1.58749 -1.58537,1.60829 -1.58536,1.60829 h 16.2118 c 8.91649,0 16.2118,-0.011 16.2118,-0.0243 z m -24.11542,-0.19765 -7.89067,-0.016 1.53874,-1.48807 c 0.84632,-0.81844 1.53877,-1.49838 1.53877,-1.51099 0,-0.0126 -0.69408,-0.69188 -1.5424,-1.50948 l -1.54238,-1.48653 1.2014,-0.007 c 0.66077,-0.005 7.77947,0.004 15.81935,0.0159 l 14.61795,0.0232 -1.3273,1.4863 c -0.73002,0.81746 -1.33075,1.49547 -1.33496,1.50669 -0.004,0.011 0.59209,0.68252 1.32512,1.49179 0.73303,0.80927 1.34039,1.48371 1.3497,1.49877 0.017,0.0274 -8.84805,0.0259 -23.75332,-0.005 z m 23.1106,-0.29526 c -0.0318,-0.0402 -0.5788,-0.64847 -1.21558,-1.35167 -0.63678,-0.7032 -1.16213,-1.29693 -1.16744,-1.31941 -0.005,-0.0225 0.53485,-0.64999 1.20034,-1.39449 0.66549,-0.74449 1.2051,-1.3577 1.19914,-1.36269 -0.0177,-0.0148 -30.35095,-0.0509 -30.35095,-0.0361 0,0.007 0.63162,0.62298 1.40362,1.36777 0.77197,0.74479 1.4036,1.36373 1.4036,1.37542 0,0.0122 -0.63313,0.63447 -1.40693,1.38394 l -1.40694,1.36267 7.57646,0.016 c 4.16705,0.009 11.00682,0.0194 15.19948,0.0238 l 7.62302,0.007 z m -27.22594,-2.80064 v -1.54152 l 0.68992,0.0125 c 0.57008,0.01 0.71194,0.0221 0.81679,0.0682 0.29171,0.12828 0.43674,0.39065 0.44099,0.79785 0.002,0.28264 -0.0422,0.4463 -0.16233,0.58914 l -0.0807,0.0959 0.066,0.0703 c 0.12582,0.13394 0.17542,0.30551 0.17593,0.60866 4.7e-4,0.32191 -0.0614,0.48802 -0.24459,0.65571 -0.16963,0.1553 -0.33879,0.18487 -1.05753,0.18487 h -0.64451 z m 1.38967,1.09664 c 0.19531,-0.11909 0.24992,-0.44006 0.11822,-0.69479 -0.0852,-0.1647 -0.18377,-0.19256 -0.68156,-0.19256 h -0.44565 v 0.4758 0.47579 l 0.45201,-1.1e-4 c 0.39739,-9e-5 0.46468,-0.007 0.557,-0.0642 z m -0.0595,-1.31843 c 0.36111,-0.1445 0.32109,-0.79215 -0.0557,-0.9024 -0.0644,-0.0188 -0.28699,-0.0297 -0.49726,-0.0243 l -0.38064,0.01 -0.009,0.44254 c -0.005,0.24341 -0.002,0.46109 0.007,0.48373 0.0246,0.0641 0.77076,0.0567 0.93558,-0.01 z m 1.25672,1.70176 c -0.0536,-0.0592 -0.0402,-0.11505 0.34467,-1.44324 0.22022,-0.75993 0.41681,-1.41772 0.43688,-1.46176 0.0429,-0.0941 0.15148,-0.13002 0.24388,-0.0806 0.0752,0.0402 0.0773,0.0467 0.55697,1.729 0.31126,1.09158 0.33087,1.17689 0.28624,1.24501 -0.0567,0.0867 -0.20648,0.0989 -0.28234,0.023 -0.0275,-0.0275 -0.0881,-0.17742 -0.13479,-0.33306 l -0.0847,-0.28296 h -0.43118 -0.43118 l -0.0861,0.28273 c -0.0473,0.15551 -0.10869,0.30538 -0.13639,0.33306 -0.069,0.069 -0.21462,0.0632 -0.282,-0.011 z m 1.24397,-1.02485 c -0.007,-0.0219 -0.0759,-0.26489 -0.15151,-0.54018 -0.0757,-0.2753 -0.14777,-0.48941 -0.16031,-0.47581 -0.0349,0.0379 -0.30878,1.01988 -0.28974,1.03893 0.01,0.009 0.15147,0.0168 0.31617,0.0168 0.22589,0 0.29599,-0.01 0.28539,-0.0396 z m 1.57157,1.02477 c -0.0835,-0.0379 -0.16586,-0.11028 -0.22204,-0.19518 l -0.0894,-0.13493 -0.01,-1.27745 c -0.01,-1.25247 -0.009,-1.27873 0.0555,-1.34255 0.0715,-0.0714 0.16286,-0.0829 0.25751,-0.0323 0.0591,0.0315 0.0614,0.0789 0.0614,1.23501 0,1.18047 0.0123,1.34442 0.10515,1.40343 0.0207,0.0132 0.24463,0.024 0.4976,0.024 0.25297,0 0.47688,-0.011 0.4976,-0.024 0.0928,-0.059 0.10502,-0.22296 0.10502,-1.40343 0,-1.15608 0.002,-1.20343 0.0614,-1.23501 0.0946,-0.0506 0.18603,-0.0392 0.25749,0.0323 0.0638,0.0638 0.0649,0.0901 0.0555,1.34255 l -0.01,1.27745 -0.0894,0.13493 c -0.14723,0.22239 -0.26078,0.25543 -0.87812,0.25543 -0.44644,0 -0.54289,-0.009 -0.65609,-0.0603 z m 2.21036,-1.47678 v -1.53842 h 0.9061 c 0.56395,0 0.92928,0.0125 0.96746,0.0329 0.073,0.0391 0.0863,0.25585 0.0192,0.31159 -0.0273,0.0226 -0.29799,0.038 -0.76921,0.0435 l -0.72704,0.009 v 0.4758 0.47579 l 0.35811,0.0159 c 0.37923,0.0169 0.41753,0.0335 0.41855,0.18239 3.5e-4,0.0393 -0.0281,0.0999 -0.063,0.13482 -0.0554,0.0554 -0.10575,0.0635 -0.3965,0.0635 h -0.33306 v 0.4758 0.47581 h 0.71579 c 0.43274,0 0.74004,0.013 0.77713,0.0329 0.0709,0.0379 0.0866,0.24647 0.0232,0.30974 -0.0279,0.0279 -0.28688,0.038 -0.96746,0.038 h -0.92939 z m 2.57044,1.47707 c -0.0213,-0.0397 -0.0329,-0.58168 -0.0329,-1.5409 v -1.47954 l 0.76922,0.01 c 0.83839,0.011 0.86541,0.0168 1.04738,0.20822 0.10857,0.11419 0.1501,0.25273 0.14987,0.49983 -4.8e-4,0.48716 -0.20867,0.68218 -0.72836,0.68218 -0.14014,0 -0.25478,0.007 -0.25478,0.0177 0,0.01 0.20147,0.30589 0.44773,0.65819 0.24626,0.35229 0.46973,0.68604 0.4966,0.74165 0.0445,0.0922 0.0441,0.10833 -0.004,0.18239 -0.0648,0.0989 -0.21765,0.11053 -0.2932,0.0223 -0.0278,-0.0324 -0.29587,-0.40711 -0.5958,-0.83264 -0.29992,-0.42553 -0.56611,-0.77369 -0.59154,-0.77369 -0.039,0 -0.0476,0.12315 -0.0547,0.79043 -0.006,0.51816 -0.0205,0.80497 -0.0435,0.83264 -0.0558,0.0673 -0.27256,0.0539 -0.31165,-0.0191 z m 1.48972,-2.06388 c 0.0873,-0.0873 0.089,-0.37368 0.002,-0.48022 -0.0593,-0.0734 -0.0716,-0.075 -0.59475,-0.075 h -0.53417 l -0.009,0.30927 -0.009,0.30928 h 0.54039 c 0.49809,0 0.54535,-0.005 0.60382,-0.0635 z m 1.68095,2.09559 c -0.3882,-0.1181 -0.55666,-0.39825 -0.5333,-0.88689 0.0122,-0.2523 0.0251,-0.30252 0.11578,-0.44843 l 0.10209,-0.16429 -0.0945,-0.14263 c -0.11003,-0.16608 -0.1433,-0.34237 -0.12165,-0.64428 0.0229,-0.31879 0.14586,-0.52369 0.39014,-0.64965 l 0.18455,-0.0951 0.67641,-0.011 0.6764,-0.011 v 1.54115 1.54113 l -0.65819,-0.002 c -0.362,-0.001 -0.69395,-0.0136 -0.73768,-0.0269 z m 1.01524,-0.8268 v -0.4758 h -0.46041 -0.46039 l -0.11676,0.10698 c -0.10845,0.0994 -0.11774,0.12226 -0.13048,0.32304 -0.011,0.16516 -9.5e-4,0.24037 0.0418,0.31916 0.0917,0.17017 0.19676,0.20088 0.6901,0.2017 l 0.43614,9.5e-4 z m 0,-1.34809 v -0.49166 l -0.40442,0.001 c -0.62317,0.002 -0.74163,0.0753 -0.76305,0.4671 -0.01,0.18327 -0.001,0.22863 0.0636,0.32411 0.1038,0.15328 0.22684,0.18644 0.69949,0.18853 l 0.40443,0.002 z m 1.68227,2.14318 c -0.0197,-0.0367 -0.0329,-0.32965 -0.0329,-0.7297 v -0.66834 l -0.3965,-0.50725 -0.3965,-0.50723 v -0.23804 c 0,-0.25815 0.0562,-0.36493 0.1924,-0.36493 0.14911,0 0.18825,0.0537 0.18825,0.25834 v 0.19267 l 0.28851,0.36925 c 0.15869,0.20309 0.30006,0.37354 0.31416,0.3788 0.0141,0.005 0.15498,-0.15889 0.31307,-0.36478 l 0.28745,-0.37433 9.4e-4,-0.19714 c 0.001,-0.2093 0.0397,-0.26281 0.18932,-0.26281 0.13621,0 0.1924,0.10673 0.1924,0.36548 v 0.23859 l -0.39606,0.51475 -0.39608,0.51477 -4.6e-4,0.68356 c -3.7e-4,0.48886 -0.011,0.6944 -0.0385,0.72162 -0.0633,0.0632 -0.27181,0.0476 -0.30974,-0.0232 z m 2.5376,0 c -0.021,-0.0394 -0.0329,-0.52225 -0.0329,-1.34961 v -1.28826 l -0.19825,0.01 -0.19824,0.01 -0.01,0.12648 c -0.0131,0.1609 -0.0522,0.20669 -0.17598,0.20609 -0.17885,-9.4e-4 -0.19335,-0.0287 -0.20519,-0.39482 l -0.011,-0.33426 h 0.98909 0.98909 l -0.011,0.33426 c -0.0122,0.36604 -0.0264,0.39394 -0.20519,0.39482 -0.12379,4.7e-4 -0.16289,-0.0451 -0.17598,-0.20609 l -0.01,-0.12648 h -0.19032 -0.19031 l -0.009,1.2977 c -0.006,0.89359 -0.0193,1.31093 -0.0435,1.34016 -0.0559,0.0674 -0.27268,0.0543 -0.31183,-0.0189 z m 1.71176,-1.47707 v -1.53842 h 0.9061 c 0.56395,0 0.92928,0.0125 0.96746,0.0329 0.073,0.0391 0.0863,0.25585 0.0192,0.31159 -0.0273,0.0226 -0.29799,0.038 -0.7692,0.0435 l -0.72705,0.009 v 0.4758 0.47579 l 0.3581,0.0159 c 0.37925,0.0169 0.41754,0.0335 0.41855,0.18239 3.7e-4,0.0393 -0.0281,0.0999 -0.063,0.13482 -0.0554,0.0554 -0.10576,0.0635 -0.39651,0.0635 h -0.33305 v 0.4758 0.47581 h 0.71578 c 0.43275,0 0.74004,0.013 0.77715,0.0329 0.0709,0.0379 0.0866,0.24647 0.0232,0.30974 -0.0279,0.0279 -0.2869,0.038 -0.96746,0.038 h -0.92939 z m 2.57043,1.47707 c -0.0213,-0.0397 -0.0329,-0.58168 -0.0329,-1.5409 v -1.47954 l 0.76921,0.01 c 0.83838,0.011 0.8654,0.0168 1.04738,0.20822 0.10857,0.11419 0.1501,0.25273 0.14987,0.49983 -4.8e-4,0.48716 -0.20867,0.68218 -0.72835,0.68218 -0.14014,0 -0.25478,0.007 -0.25478,0.0177 0,0.01 0.20147,0.30589 0.44773,0.65819 0.24624,0.35229 0.46972,0.68604 0.4966,0.74165 0.0445,0.0922 0.0441,0.10833 -0.004,0.18239 -0.0648,0.0989 -0.21765,0.11053 -0.29321,0.0223 -0.0277,-0.0324 -0.29587,-0.40711 -0.5958,-0.83264 -0.29992,-0.42553 -0.5661,-0.77369 -0.59153,-0.77369 -0.039,0 -0.0476,0.12315 -0.0548,0.79043 -0.006,0.51816 -0.0205,0.80497 -0.0435,0.83264 -0.0557,0.0673 -0.27254,0.0539 -0.31163,-0.0191 z m 1.48973,-2.06388 c 0.0873,-0.0873 0.089,-0.37368 0.002,-0.48022 -0.0593,-0.0734 -0.0716,-0.075 -0.59474,-0.075 h -0.53417 l -0.009,0.30927 -0.009,0.30928 h 0.54039 c 0.49809,0 0.54534,-0.005 0.60382,-0.0635 z m -23.80324,-3.29888 c 0.21164,-0.60392 0.34398,-0.91611 0.63278,-1.49277 1.66154,-3.31753 4.75137,-5.69534 8.36759,-6.43934 0.90222,-0.18563 1.39964,-0.23255 2.47967,-0.23392 0.76092,-9.4e-4 1.08734,0.0122 1.44326,0.0558 2.7487,0.34087 5.1431,1.48387 7.08519,3.38222 1.37324,1.34232 2.39498,2.96326 3.02022,4.79146 l 0.13562,0.39651 0.1767,0.01 c 0.22064,0.0122 0.22048,0.0136 0.0472,-0.48972 -1.00541,-2.92005 -3.01832,-5.36244 -5.67521,-6.88606 -1.5084,-0.86502 -3.20896,-1.40818 -5.01175,-1.60078 -0.47059,-0.0503 -1.94013,-0.0503 -2.41071,0 -3.01302,0.32188 -5.64672,1.59356 -7.73979,3.73714 -1.35138,1.384 -2.28498,2.89569 -2.91533,4.72052 -0.0888,0.25695 -0.16139,0.48096 -0.16139,0.4978 0,0.0172 0.0797,0.0264 0.1824,0.0212 l 0.18239,-0.01 z m 22.50271,0.4277 c 0,-0.0845 -0.28046,-0.82538 -0.47139,-1.24532 -0.79969,-1.75905 -2.03827,-3.29226 -3.60975,-4.46848 -1.65005,-1.23502 -3.52052,-1.97092 -5.68859,-2.23807 -0.51059,-0.063 -2.1292,-0.0526 -2.64862,0.0169 -2.6865,0.35925 -5.01735,1.52803 -6.88322,3.45152 -0.89579,0.92345 -1.53957,1.84512 -2.1125,3.02439 -0.24356,0.50134 -0.59956,1.37594 -0.59956,1.47301 0,0.0245 3.15354,0.0342 11.00681,0.0342 9.81441,0 11.00682,-0.005 11.00682,-0.0481 z m -13.79816,-1.11262 c -0.76757,-0.20389 -1.12836,-0.80802 -1.04555,-1.75072 0.0373,-0.42409 0.15781,-0.7349 0.35735,-0.92127 l 0.0791,-0.074 -0.15413,-0.20364 c -0.21581,-0.28514 -0.28842,-0.53187 -0.28864,-0.9808 -4.8e-4,-0.91105 0.33651,-1.43419 1.0421,-1.61797 0.14509,-0.0378 0.41656,-0.0473 1.34862,-0.0473 h 1.16698 v 2.82308 2.82307 l -1.16571,-0.001 c -0.91636,-0.001 -1.20302,-0.0122 -1.34016,-0.0484 z m 1.77631,-1.53547 v -0.85645 l -0.75334,2.5e-4 c -0.44874,9e-5 -0.80466,0.0143 -0.88023,0.035 -0.18711,0.0514 -0.37792,0.26306 -0.42965,0.47659 -0.0641,0.26432 -0.0533,0.61886 0.024,0.79236 0.0743,0.16688 0.23805,0.31225 0.41289,0.36663 0.0763,0.0237 0.39259,0.038 0.87298,0.0396 l 0.75334,0.002 z m 0,-2.4583 v -0.8723 l -0.75334,2.4e-4 c -0.44874,10e-5 -0.80466,0.0143 -0.88023,0.0351 -0.0785,0.0215 -0.17679,0.0867 -0.25766,0.17061 -0.15264,0.15849 -0.21197,0.35241 -0.21357,0.6982 -0.002,0.35914 0.10111,0.58212 0.32697,0.70903 0.1937,0.10881 0.32844,0.125 1.07206,0.12836 l 0.70577,0.004 z m 1.2688,1.22124 v -2.82648 l 1.245,0.01 c 1.19167,0.009 1.2529,0.0126 1.42895,0.0791 0.26388,0.0998 0.46341,0.25382 0.60968,0.47086 0.15731,0.23339 0.22727,0.44446 0.27438,0.82778 0.0652,0.53023 -0.0393,0.96625 -0.31136,1.30034 l -0.13307,0.16338 0.0948,0.0907 c 0.16023,0.1534 0.30608,0.49724 0.34724,0.81862 0.11517,0.89887 -0.20735,1.53895 -0.907,1.80015 -0.18294,0.0683 -0.23794,0.0715 -1.41946,0.0817 l -1.22915,0.011 z m 2.38732,2.04358 c 0.21617,-0.0736 0.38759,-0.27324 0.43634,-0.508 0.0401,-0.19316 0.0256,-0.47228 -0.0362,-0.69493 -0.046,-0.16549 -0.25891,-0.37853 -0.42445,-0.42449 -0.0764,-0.0212 -0.4262,-0.0352 -0.88013,-0.0353 l -0.75335,-1.2e-4 v 0.85645 0.85643 h 0.75563 c 0.6042,0 0.78499,-0.01 0.90214,-0.0499 z m 0.0666,-2.48581 c 0.35488,-0.17404 0.48592,-0.64197 0.33358,-1.19127 -0.046,-0.16549 -0.25891,-0.37853 -0.42445,-0.42449 -0.0764,-0.0212 -0.4262,-0.0352 -0.88013,-0.0353 l -0.75335,-1.3e-4 v 0.87515 0.87514 l 0.78508,-0.011 c 0.7507,-0.011 0.79181,-0.015 0.93927,-0.0873 z"
       id="path1267"
       inkscape:connector-curvature="0"
       sodipodi:nodetypes="csscsssssssscccccssccsssssscccscccccscsssssscccscssscscsccsscccccccccccccccccccccccccccccccccscssccsccccscscccccsccccccsccscccccscccccccccccccscccsscccccccccccscccssccccccccccccccsccsccssccscccccsscccsccccccccccccssccccccscccccsccccccssccccccssccssscccsccsccccccccccccccsssccsccccccccccccccccccccccssscccccsssccccccscccccccccccscsscccccsscccccccscccccscccccccscccccccscccccccscccccccsccsccscccccccsccccccccccccccccccccccccsccsccccccccscccscccccccccsccccccccsscsccccsssscsscccccssscsssccscccccscscccscsscsscccccccsccccscccssccccccccccsccccccccccccccccccccccscccccccscscsccccssccccssccccccccscccsccscccscsccsscccccsccccccscccscccccccccccccccccccccccccccccccccccscccsssccccccssccccccccscccccccccccccccccccccscccccccccscccsccscccscsccsscccccsccccccscccsccccscccscccsssscscccscscsscsssccccccssccccccccccccccccccccccsccccccsssccccsccccccsccccsccccsccccccc" />
  </g>
</svg>
